<?xml version="1.0" encoding="utf-8"?>
<!-- Svg Vector Icons : http://www.onlinewebfonts.com/icon -->
<!DOCTYPE svg PUBLIC "-//W3C//DTD SVG 1.1//EN" "http://www.w3.org/Graphics/SVG/1.1/DTD/svg11.dtd">
<svg version="1.1" xmlns="http://www.w3.org/2000/svg" xmlns:xlink="http://www.w3.org/1999/xlink" x="0px" y="0px" viewBox="0 0 1000 1000" enable-background="new 0 0 1000 1000" xml:space="preserve">
<metadata> Svg Vector Icons : http://www.onlinewebfonts.com/icon </metadata>
<g><path d="M503.6,690.1c-16.1,0-29.5,5.4-40.6,16.2c-11,10.8-16.5,24.1-16.5,39.8c0,17.8,5.7,31.6,17.1,41.6c11.4,9.8,24.7,14.9,40,14.9c14.8,0,27.8-5,39.2-15.1s17-23.8,17-41.3c0-15.8-5.4-29.1-16.2-39.8C532.7,695.5,519.5,690.1,503.6,690.1z M500,10C229.8,10,10,229.8,10,500s219.8,490,490,490s490-219.8,490-490S770.2,10,500,10z M500,920C268.5,920,80,731.5,80,500S268.5,80,500,80s420,188.5,420,420S731.5,920,500,920z M608.9,253.4c-27.8-13.3-59.9-20.1-96.3-20.1c-39.2,0-73.3,8-102.6,24.1c-29.3,16.1-51.6,36.3-66.9,60.7s-23,48.6-23,72.4c0,11.5,4.8,22.2,14.4,32.2c9.6,10,21.4,14.9,35.5,14.9c23.8,0,39.9-14.1,48.5-42.4c9-27.1,20-47.6,33-61.5c13-13.9,33.4-20.9,60.9-20.9c23.5,0,42.8,6.9,57.8,20.7c14.9,13.8,22.4,30.7,22.4,50.8c0,10.3-2.4,19.8-7.3,28.5s-10.9,16.7-18,23.8s-18.7,17.7-34.8,31.7c-18.3,16.1-32.8,29.9-43.6,41.6c-10.8,11.7-19.5,25.2-25.9,40.6c-6.6,15.4-9.7,33.7-9.7,54.7c0,16.8,4.5,29.4,13.3,38s19.9,12.8,32.9,12.8c25,0,39.9-13,44.7-39.2c2.7-12.3,4.8-20.9,6.2-25.7c1.3-4.9,3.3-9.7,5.8-14.7s6.3-10.3,11.5-16.2s11.9-12.7,20.5-20.5c30.8-27.6,52.2-47.1,64.1-58.8c11.9-11.7,22.2-25.5,30.8-41.6c8.6-16.1,13-34.7,13-56c0-27.1-7.5-52.2-22.8-75.3C658.3,285.1,636.7,266.8,608.9,253.4z"/></g>
</svg>