<svg xmlns="http://www.w3.org/2000/svg" xml:space="preserve" viewBox="0 0 500 500"><path fill="#02A0E9" d="M249 501H1c0-82.687 0-165.375.4-248.408 15.67-.141 30.94.092 46.211.175.691.003 1.39-1.348 2.085-2.068-1.094-.636-2.186-1.821-3.282-1.825-15.137-.053-30.276.056-45.414.126V1c83.02 0 166.042 0 249.495.417.213.864-.197 1.309-.2 1.756-.068 14.798-.154 29.597 0 44.394.01.939 1.918 1.858 3.705 3.476V1h247c0 83.354 0 166.708-.403 250.421-10.682.094-20.959-.223-31.238-.416-5.94-.11-11.883-.02-17.824-.02l-.685 1.746c1.243.742 2.479 2.116 3.729 2.129 15.472.162 30.947.125 46.421.14v246c-82.354 0-164.708 0-247.664-.453-.602-15.832-.602-31.21-.602-46.487-4.211-1.368-3.737 1.37-3.736 3.71.005 14.41.002 28.82.002 43.23M138.576 294.864c.856-.399 1.712-.798 3.314-1.295 2.044-.849 4.088-1.697 6.855-2.553.607-.36 1.214-.72 2.122-1.268.231-.239.462-.478 1.398-.244 3.077-1.476 6.154-2.952 9.271-4.425 0 0 .023-.032.648.625 18.366-6.86 36.732-13.72 55.693-20.557.7-.342 1.402-.684 2.906-1.053 3.232-.61 6.59-2.537 9.391 1.577.038.443.075.886-.186 2.095-.913 4.257 1.736 6.299 5.11 7.293 3.792 1.119 7.767 1.616 12.228 2.494-.33 1.913-.377 4.09-1.09 6.02-3.807 10.286-7.91 20.463-11.667 30.766-8.458 23.196-.86 43.019 13.334 61.295 1.214 1.564 3.38 3.23 5.187 3.327 4.554.246 9.155-.376 15.133-.734-1.997-1.188-2.675-1.62-3.378-2.006-21.119-11.607-32.221-37.164-25.812-60.29 3.576-12.907 7.766-25.644 11.751-38.693 2.383-.875 5.542-2.035 9.113-3.24.38-.16.76-.322 1.914-.48 2.99-2.24 4.097-4.903 2.206-8.485-.447-.847-.679-2.53-.205-2.976.78-.737 2.199-.95 3.379-1.06.9-.085 1.848.33 3.166.8.704.378 1.408.757 2.429 1.805.67.298 1.339.596 2.498 1.343 4.147 2.069 8.293 4.138 12.869 6.733 1.22.58 2.442 1.161 4.117 2.234 2.915 1.402 5.83 2.804 9.146 4.701.774.339 1.548.677 2.814 1.45 15.467 7.915 30.5 16.732 46.395 23.758l1.112-1.79c-1.498-1.29-2.996-2.58-4.549-4.73-1.699-4.798-3.398-9.597-5.104-15.118-2.04-2.576-4.079-5.15-6.081-7.686 0 0 .053.007-.026-.736-.337-.269-.674-.538-.997-.75 0 0 .052.03.345-.61-.106-.454-.213-.91.349-1.391.443-.037.887-.073 1.838.337 4.113 4.66 7.72 10.305 15.921 8.148a55.786 55.786 0 0 0-.545-3.297c-3.992-4.39-7.985-8.78-11.812-13.828.644-.179 1.288-.357 2.7-.29l7.607 1.176-.523-2.067c4.034-3.666 10.356-2.446 15.587-5.347-8.794-1.942-16.987-3.441-24.042-8.93 4.892-1.46 9.1-2.714 14.576-4.346l-18.33-6.362.185-1.33 14.286-2.135.284-1.223-22.523-7.372 12.492-21.495-.97-1.013c-4.794 2.335-9.587 4.67-14.38 7.003l-.362-.978 15.539-18.775-.868-1.054-11.853 1.121 4.202-17.028-18.866 13.643-1.327-1.357 10.116-20.11-14.504 7.226V152.48c-6.572 8.944-13.105 17.503-19.257 26.327-3.799 5.45-7.563 11.047-10.369 17.035-4.014 8.569-7.108 17.567-10.667 26.353-.714 1.762-1.747 3.394-2.634 5.086l-1.382-.623c1.463-4.827 3.13-9.604 4.354-14.491 4.43-17.683 13.358-32.894 25.142-46.595.717-.834 1.523-1.96 1.543-2.965.137-6.762.071-13.529.071-20.294l-1.56-.317c-2.662 3.675-5.324 7.35-8.417 11.617l-10.88-22.954-16.535 71.324c-2.307-17.024-2.817-32.578 2.166-47.953.689-2.127 1.253-4.598.857-6.719-1.4-7.506-3.243-14.929-4.845-22.057l-4.042 2.575-10.982 98.837c-.914-8.516-2.685-15.916-2.31-23.205 1.229-23.841-3.33-46.38-13.343-67.913-1.238-2.662-2.946-5.105-4.435-7.65l-1.49.551v11.963l-1.01.164-10.044-17.407c-1.936 11.147-.61 21.251 4.64 31.293 6.52 12.468 11.605 25.686 17.257 39.067 0 0 .076.485.171 1.252l.958 6.03c-4.034-6.243-7.082-12.418-11.47-17.417-6.924-7.885-10.788-16.734-11.479-27.033-.609-9.075-6.21-15.964-10.307-23.843-1.118 6.68-2.02 13.356-1.035 19.741 2.123 13.75 10.215 24.29 20.063 33.703 3.086 2.95 5.64 6.506 8.134 10 .874 1.224.842 3.095 1.224 4.67-5.746-5.32-10.264-11.243-15.419-16.545-11.654-11.987-25.58-22.161-30.177-39.783-1.235 6.981-4.778 13.492-1.721 20.862-.129.156-.257.312-1.154.415l-16.498-3.968c3.39 5.3 7.35 9.294 11.101 13.477 3.78 4.215 7.31 8.376 13.62 9.124 2.795.332 5.825 1.994 7.97 3.918 8.647 7.754 17.01 15.827 25.407 23.854.63.604.717 1.777 1.433 3.695-1.728-1.06-2.507-1.38-3.088-1.915-12.163-11.21-26.692-17.686-42.357-22.542-7.272-2.254-13.845-6.889-20.565-10.74-2.478-1.421-4.468-3.693-7.688-6.434 0 4.162.06 7.088-.011 10.01-.216 8.915 1.91 12.109 10.413 15 2.347.798 4.829 1.397 7.29 1.623 12.583 1.157 24.686 4.414 35.923 9.93 7.509 3.686 14.256 8.972 21.153 13.814 1.25.878 1.577 3.072 2.33 4.659-5.858-2.954-10.32-6.928-15.535-9.062-11.052-4.521-22.396-8.406-33.808-11.948-11.317-3.512-23.735-3.996-32.811-13.314l-.973.845 3.8 12.082-7.4 1.854c2.89 2.197 5.278 3.696 7.283 5.598 4.775 4.526 10.435 5.44 16.818 5.883 11.918.826 23.786 2.575 35.616 4.34 3.085.46 5.95 2.394 8.213 4.313-7.963-.102-15.94-.56-23.884-.23-16.238.674-32.565 2.68-48.849-6.84 2.63 4.956 4.725 8.493 6.413 12.214 1.295 2.856 3.194 4.046 6.24 3.708 9.9-1.098 19.81-2.105 29.704-3.263 7.748-.907 15.46-2.176 23.224-2.868 2.255-.201 4.638 1.033 6.438 2.272-4.708.784-9.522 1.176-14.105 2.42-17.885 4.857-35.696 9.984-54.029 14.911.112.483.224.965.688 1.99l8.348 7.087-7.204 4.34c3.701 1.532 6.37 2.636 9.677 4.384.138 1.416.276 2.832.046 4.237-.318.322-.636.643-1.238 1.69-5.144 4.218-8.71 9.517-11.129 16.032-.382.325-.764.65-1.85 1.196l-.519 1.98c.894-.036 1.787-.07 3.25-.072m246.17 84.728c.085-.53.17-1.06.96-1.576l4.742-4.148-7.587-8.004 6.062-6.38-1.313.947-16.815-16.024.563-2.63c-2.698 3.174-5.42 6.327-8.073 9.538-.584.708-.971 1.6-1.35 2.45-.616 1.392-.765 3.483-1.805 4.089-1.907 1.11-4.919.738-6.351 2.134-1.439 1.4-.914 4.74-2.302 6.283-3.49 3.878-7.572 7.222-11.616 10.964l-3.577-4.231-5.129 3.308 1.913 4.13c-3.123 1.99-6.187 3.706-8.947 5.82-1.047.8-1.395 2.513-2.705 3.454-4.624.048-.62-4.257-2.985-5.539-2.96.238-5.056 1.272-4.748 5.116.086 1.076-.99 2.931-1.91 3.22-1.036.324-3.002-.339-3.688-1.239-2.556-3.35-4.782-2.273-7.367-.235l2.986 4.554c-1.652.63-3.19 1.217-5.417 1.561-2.3-3.428-4.807-5.929-8.921-1.892 1.186 1.586 2.342 3.13 2.745 4.797-.033.828-.067 1.655-.884 3.278h-14.679l1.439-6.355c-6.456.053-6.227.15-8.269 4.967-.672 1.586-2.692 2.949-4.407 3.652-1.943.797-4.277.581-6.356 1.128-.816.214-1.402 1.302-2.093 1.992.904.409 1.824 1.194 2.707 1.155 2.527-.112 5.038-.559 8.112-.943l-7.484 25.744c4.7.85 7.48-.323 8.552-5.203 1.14-5.185 2.984-10.216 4.76-16.11 3.97 5.223 7.522 9.43 10.532 13.993 2.76 4.184 5.866 4.549 10.226 2.217l-16.004-21.152c5.019-2.096 9.4-3.926 13.81-4.977.6 1.515 1.202 3.03 2.092 5.272l15.481-4.093 1.024 1.004c-1.615 1.6-3.008 3.575-4.905 4.702-2.246 1.334-4.994 1.794-7.388 2.925-.954.45-1.541 1.681-2.295 2.556 1.1.197 2.32.8 3.28.516 3.595-1.06 7.105-2.411 11.808-4.06v11.838c7.98-1.359 8.245-1.995 5.891-14.01 3.273-1.375 6.606-2.775 10.556-4.302-.158-.737-.316-1.474-.966-2.718l-9.937 3.033c-1.272-6.458 3.822-7.338 7.433-9.05-.84-2.732-1.511-4.914-1.424-6.932 3.293-1.774 6.511-3.715 9.92-5.23 1.154-.512 2.788.054 4.203.128l.034 1.517-10.486 6.996c4.035 5.8 10.654 3.059 15.302 5.25-.927 4.97-1.793 9.616-3.037 14.046l-.144.72c.16-.188.318-.376 1.2-.515 6.883-1.999 5.777-8.915 8.268-13.808 6.375.34 13.249 3.204 18.494-3.788l-17.086-2.247 3.89-15.731c-4.578-.641-6.985 6.924-12.743 2.709l13.37-9.564c1.461 1.905 5.87 2.642 4.596 7.274-.035.128 1.572.706 3.027 1.116.204.01.41.02.696.691l11.765 12.452c3.724-4.372 7.046-8.27 10.754-12.55m52.269-83.438 3.017-2.805c-.929-.705-1.795-1.518-2.798-2.093-2.74-1.574-5.537-3.048-8.335-5.149.013-.588.026-1.176.718-2.202.585-.292 1.19-.553 1.754-.882 1.495-.872 2.974-1.774 4.459-2.664l-4.256-2.353-7.034-3.898.673-1.545c1.077-.188 2.219-.214 3.211-.612.93-.373 1.704-1.14 2.546-1.734-.65-.774-1.205-2.103-1.965-2.234-5.503-.941-6.675-4.094-4.644-9.119-.129-.285-.257-.57-.585-1.599-.392-1.017-.663-2.848-1.194-2.927-5.996-.886-5.762-4.914-4.654-9.485l-4.41-.822c1.545-1.001 3.037-.99 4.388-1.42.734-.233 1.23-1.218 1.833-1.864-.555-.517-1.074-1.434-1.671-1.489-6.076-.557-10.338-3.884-12.763-8.216-3.735 2.633-6.97 5.064-10.367 7.244-1.66 1.066-3.623 1.663-5.449 2.472 1.95.84 3.905 1.665 5.84 2.537.269.122.433.475.68.694 0 0 .032-.032-.711.208l-3.99.548c1.427 4.597 1.415 8.217-4.025 9.508-.653.156-.814 2.387-1.28 3.752 0 0-.073.097-.633.307-.083.82-.502 1.807-.192 2.434 1.675 3.387.412 5.214-2.817 6.553-1.56.646-2.835 1.984-4.238 3.01 1.683.664 3.37 1.315 5.042 2.009.272.113.466.413 1.486 1.36-1.69 1.269-3.15 2.56-4.793 3.548-2.072 1.244-4.293 2.239-6.45 3.341 2.15 1.167 4.3 2.334 6.521 4.24-.402 4.243-3.28 5.605-6.978 6.4-1.411.303-2.602 1.636-3.893 2.5 1.291.813 2.583 1.626 3.91 3.317.035 3.185.07 6.37-.217 10.308l-4.44 21.362h72.859c-1.741-7.655-3.39-14.908-4.986-22.982.009-3.187.017-6.374.83-9.558M176.719 116.102c.85 2.31 1.887 3.61 4.723 2.128 3.512-1.835 7.283-3.172 10.942-4.726 3.742-1.59 4.93-4.524 3.503-8.107-3.186-7.999-6.583-15.917-10.07-23.79-1.485-3.356-4.312-4.618-7.81-3.24-4.75 1.872-9.403 3.99-14.512 6.179 2.19 5.17 4.344 9.978 6.265 14.877 1.892 4.828 3.548 9.748 4.59 14.606l-16.757-26.696-5.854 3.75c5.331 8.627 10.306 16.875 15.5 24.983 1.952 3.048 1.54 4.816-1.507 6.882-3.68 2.494-5.905 1.931-7.863-1.907-1.28-2.508-2.946-4.819-4.437-7.219l-10.755-17.313-5.888 3.884c5.555 8.954 10.643 17.538 16.194 25.81 1.264 1.886 4.11 3.748 6.265 3.792 5.265.106 15.458-8.984 17.471-13.893m189.528 13.161c-.135-.134-.27-.269-.257-1.081l9.963-15.879-4.278-3.675-13.926 12.505-1.38-1.181 10.05-15.83-5.574-4.396-20.392 32.286 5.187 4.288 10.661-8.326.796.835-6.951 11.293 5.417 4.411 29.407-24.387-.609-1.769c-1.653.303-3.674.104-4.893.998-4.423 3.244-8.577 6.855-13.22 9.908M136.97 375.96c.15.148.3.297.451 1.262-.842 4.75-1.268 9.624-2.638 14.216-1.52 5.097.4 7.743 5.04 9.672l5.292-27.464 10.61 8.645-11.521 22.313 5.461 2.846 5.405-9.738 4.554 2.602-5.346 9.638 11.475 5.943 6.748-5.45 2.64 9.287c1.807-2.188 3.638-4.986 2.905-6.665-2.776-6.364.915-9.565 5.117-12.792 1.395-1.072 2.88-2.027 4.806-3.372l-13.959-7.452 2.609-3.66c3.772 1.938 7.124 3.781 10.594 5.365.98.447 2.305.133 3.473.169-.696-1.062-1.167-2.453-2.136-3.115-1.908-1.304-4.093-2.203-6.163-3.269l-21.929-11.293-3.246 5.507-10.382-8.536 6.314-3.595.187-1.475c-2.411-.763-5.636-2.894-7.082-2.034-4.47 2.66-7.356 1.232-10.417-1.907-1.26-1.293-2.826-2.287-4.253-3.417-.573.36-1.145.722-1.717 1.083.034 4.023 5.695 4.753 6.998 8.395l-23.754 11.585c3.066 4.358 6.131 5.031 10.39 2.46 4.103-2.478 8.675-4.175 13.474-5.754M92.256 240c-13.975 1.252-20.997 8.814-21.001 22.619-.002 4.853 0 9.707 0 15.156-2.894-1.385-4.73-2.65-6.755-3.147-3.372-.826-9.555-2.265-9.864-1.515-1.808 4.393 2.295 7.335 5.3 8.71 11.204 5.125 12.613 14.076 11.399 24.724-.487 4.27-.08 8.644-.08 12.97v9.09h44.68c0-10.843.103-21.312-.063-31.777-.05-3.086.858-5.074 3.25-7.18 3.574-3.147 6.569-6.981 9.584-10.705.685-.847.448-2.441.635-3.692-1.379-.143-2.926-.758-4.103-.337-3.032 1.082-5.9 2.624-9.307 4.2 0-7.085-.033-13.703.01-20.32.034-5.37-1.914-10.117-6.284-12.918-4.076-2.612-8.952-3.976-13.6-6.582l-1.327-2.642c-.707 1.465-1.175 2.433-2.474 3.346M290.978 97.575l2.2-6.669 1.53.2 1.604 18.813 6.727 1.842c-.292-3.556-.613-6.36-.728-9.172-.116-2.814-.026-5.636-.026-8.473 5.705-1.47 11.132-10.357 9.47-16.153-.437-1.523-1.988-3.328-3.441-3.85-5.27-1.895-10.716-3.299-16.515-5.012l-10.495 36.528 6.71 1.794a626.393 626.393 0 0 0 2.964-9.848m-7.893-11.813c.115-.823.211-1.65.347-2.469 2.583-15.558 2.046-16.243-13.717-17.485-5.574-.44-7.336.672-8.194 6.158-1.256 8.04-2.268 16.122-3.152 24.212-.412 3.774 1.192 6.466 5.337 7.023 3.622.487 7.226 1.135 10.86 1.488 3.448.336 5.888-1.233 6.518-4.733.793-4.408 1.3-8.869 2.001-14.194m-57.749 329.792v14.473c-1.03 0-1.95-.234-2.65.059-.866.362-1.55 1.161-2.311 1.771.73.505 1.435 1.402 2.198 1.455 9.794.685 19.595 1.28 29.4 1.774.656.033 1.363-.942 2.046-1.448-.623-.563-1.162-1.32-1.892-1.64-.859-.376-1.883-.374-3.107-.583 1.024-6.936 1.976-13.67 3.066-20.38.126-.775 1.054-1.403 1.556-2.136.49-.716.91-1.48 1.36-2.223-.795-.449-1.558-1.202-2.393-1.292-3.251-.35-6.524-.491-10.004-.724v-5.683l-6.275-.49-.914 5.417h-12.098c.677 3.64 1.333 7.17 2.018 11.65m151.38-279.329c-3.562 3.004-7.158 5.967-10.673 9.024-2.614 2.273-4.503 5.346-1.72 8.184 4.135 4.217 5.609 11.977 13.778 11.191.756-.072 1.535-.667 2.163-1.188 6.659-5.523 13.37-10.985 19.892-16.665 3.254-2.834 3.108-6.424.036-9.136-4.172-3.683-5.443-12.142-13.986-9.026-.751.274-1.389.904-2.029 1.43-2.312 1.903-4.603 3.832-7.462 6.186m-276.5-1.524c-2.042 2.889-6.445 5.742-3.95 9.354 2.692 3.895 6.908 7.275 11.208 9.24 1.596.73 5.8-2.748 7.947-5.1 2.654-2.909 4.703-3.222 7.454-.595 1.202 1.147 3.046 1.933 3.66 3.304.709 1.585 1.077 3.985.355 5.401-1.252 2.459-3.569 4.353-5.185 6.662-.45.643-.01 1.911.023 2.893.849-.2 1.965-.13 2.496-.653 1.533-1.511 2.79-3.296 4.225-4.913 8.465-9.54 8.694-10.498-2.567-19.34-3.758-2.95-7.035-2.552-9.86 1.212-5.539 7.385-5.808 5.684-11.948.778-2.71-2.165-2.798-4.146-.528-6.665 2.186-2.426 4.145-5.058 6.203-7.598l-.722-1.374c-1.187.363-2.69.394-3.497 1.159-1.8 1.704-3.253 3.774-5.314 6.235m110.67-46.99 3.918-19.385-1.89-.776c-5.006 4.178-2.708 11.808-6.192 17.261-2.477-3.109-5.084-5.745-6.92-8.839-2.606-4.39-5.624-4.085-9.932-1.71 9.02 9.901 16.936 20.055 17.464 34.236l6.98-1.83c-1.269-6.402-2.426-12.246-3.428-18.956M193.81 423.138c-.055-1.04-.569-2.415-.093-3.069 3.321-4.557 6.847-8.965 11.326-14.732-3.795.173-7.458-.745-8.7.59-4.933 5.3-9.11 11.306-13.967 17.564l30.637 8.533c0-4.123-.39-7.819.09-11.398.746-5.569-1.837-7.35-7.163-7.276v13.152c-4.121-1.134-7.767-2.137-12.13-3.364M340.59 87.954c-7.63-4.302-7.63-4.302-9.401-1.368l7.36 4.554-16.65 29.913 6.124 3.362L344.86 94.57l7.596 3.979 1.364-.8c-.57-1.113-.851-2.674-1.76-3.257-3.495-2.238-7.19-4.162-11.47-6.537m-204.97 45.942 8.434 9.599 5.273-4.63-22.562-25.902c1.828-1.623 3.467-2.802 4.716-4.306.62-.745.519-2.087.743-3.159-.983.161-2.25-.015-2.905.537-5.22 4.402-10.384 8.877-15.392 13.517-.637.59-.275 2.26-.495 4.81l8.003-6.666c4.724 5.404 9.214 10.54 14.185 16.2M243.075 86.89c1.156-.587 2.277-1.58 3.473-1.68 2.943-.245 5.92-.08 8.883-.08l.478-2.232c-3.512-3.069-8.9.323-12.727-1.754V68.1c3.735 0 7.2.081 10.655-.066.73-.031 1.425-.9 2.137-1.384-.735-.629-1.457-1.784-2.207-1.803-5.925-.15-11.855-.083-17.505-.083v37.83h6.788c0-5.158 0-9.965.025-15.706m-142.288-31.25c8.581 11.028 17.182 22.042 25.727 33.098 1.766 2.284 3.333 3.88 5.197-.043-9.421-12.085-18.797-24.176-28.294-36.17-.729-.92-2.32-1.156-3.51-1.71.137 1.424.275 2.847.88 4.825m327.097 44.765-21.986 18.153 2.376 3.438c11.936-9.836 23.096-18.964 34.13-28.241 1-.841 1.188-2.646 1.754-4.003-1.411.229-3.158.008-4.173.767-3.979 2.975-7.726 6.259-12.101 9.886m-278.64-70.28-4.094-3.97c-.138 1.292-.805 2.83-.333 3.837 5.903 12.608 11.918 25.164 18.1 37.637.473.955 2.417 1.18 3.677 1.745l.814-1.43c-5.927-12.392-11.854-24.784-18.164-37.82m151.04 429.92-2.42-10.917c-3.567-.097-3.905 1.255-3.253 4.066 2.922 12.603 5.587 25.265 8.353 37.905.177.806.266 1.693.68 2.367.379.615 1.37 1.512 1.694 1.372.77-.335 1.779-1.171 1.837-1.876.12-1.448-.225-2.964-.542-4.416a3129.274 3129.274 0 0 0-6.35-28.5M83.75 112.725c3.49 2.814 7.031 5.571 10.458 8.462 2.785 2.35 3.52.587 4.394-1.762-11.185-9.091-22.097-18.04-33.146-26.817-1.095-.87-3.029-.682-4.573-.985.737 1.435 1.132 3.276 2.269 4.24 6.587 5.582 13.35 10.959 20.598 16.862m-44.135 245.34 30.983-15.527c-.414-3.609-1.923-3.635-4.43-2.349-9.16 4.702-18.395 9.256-27.601 13.868-2.822 1.413-5.726 2.694-8.405 4.34-.801.491-.97 2.014-1.427 3.065 1.032.17 2.231.761 3.065.43 2.457-.975 4.77-2.316 7.815-3.827M301.301 22.703c-2.06 9.386-4.183 18.76-6.09 28.177-.223 1.1.745 2.442 1.16 3.672.878-.66 2.355-1.18 2.544-2a2082.515 2082.515 0 0 0 8.79-39.794c.183-.873-.962-2.025-1.489-3.047-.831.83-2.114 1.524-2.41 2.514-.947 3.166-1.527 6.442-2.505 10.478m-95.633 6.026c-1.139-5.016-2.14-10.07-3.499-15.026-.407-1.482-1.815-2.69-2.764-4.023-.367 1.712-1.288 3.524-1.002 5.119 1.115 6.203 2.597 12.34 3.974 18.495 1.614 7.205 3.261 14.403 4.894 21.604l1.984.24c.412-1.393 1.384-2.891 1.144-4.161-1.35-7.174-2.99-14.293-4.731-22.248M396.33 428.145c-4.404-5.64-8.913-11.2-13.168-16.95-2.13-2.877-3.414-2.14-4.941.36 8.628 11.068 17.072 21.994 25.674 32.796.932 1.17 2.776 1.615 4.197 2.397-.388-1.69-.322-3.701-1.248-5.012-3.164-4.48-6.677-8.714-10.514-13.591m-35.481 46.513c.088-1.066.596-2.33.202-3.168-5.993-12.751-12.104-25.447-18.101-37.976-3.53.346-3.772 1.75-2.484 4.38 5.621 11.478 11.04 23.056 16.667 34.53.539 1.098 2.021 1.732 3.716 2.234m-233.947-62.019-1.547-4.614c-9.681 12.139-18.455 23.032-27.04 34.074-.835 1.075-.498 3.061-.706 4.625l1.803.356a16425.423 16425.423 0 0 1 27.49-34.44m-56.918-11.171c7.681-6.343 15.325-12.732 23.067-19 2.33-1.885 2.885-3.408-.214-5.231-2.058 1.662-4.125 3.3-6.158 4.98-8.575 7.084-17.187 14.126-25.641 21.352-.9.769-.854 2.64-1.247 4 1.298-.291 2.808-.26 3.85-.943 2.071-1.356 3.884-3.104 6.343-5.158m388.37-257.595c-7.567 3.768-15.114 7.574-22.71 11.282-2.679 1.308-3.612 2.705-.756 5.123 12.33-6.158 24.65-12.253 36.877-18.527.942-.483 1.238-2.225 1.834-3.381-1.31-.073-2.816-.602-3.894-.136-3.645 1.575-7.138 3.503-11.351 5.64m-58.748-79.78c-6.633 8.32-13.244 16.659-19.914 24.95-1.647 2.046-2.956 3.852 1.07 5.066 1.94-2.382 3.943-4.8 5.903-7.253 7.06-8.831 14.15-17.638 21.088-26.564.714-.919.486-2.57.694-3.882-1.238.43-2.794.531-3.65 1.357-1.778 1.72-3.187 3.822-5.191 6.326M43.363 145.132c-3.413-1.681-6.767-3.506-10.276-4.957-1.053-.435-2.537.174-3.824.305.727 1.09 1.202 2.676 2.22 3.193 12.091 6.15 24.238 12.198 36.469 18.064.926.444 2.61-.69 3.94-1.09-.106-.502-.212-1.002-.32-1.503-9.186-4.546-18.372-9.09-28.209-14.012M355.384 31.984 338.09 68.22l1.155 1.382c1.202-.633 3.023-.96 3.51-1.947a1668.616 1668.616 0 0 0 16.59-34.642c.51-1.097.006-2.667-.027-4.017-1.187.79-2.375 1.58-3.933 2.987M39.05 199.624c-8.227-1.942-16.441-3.937-24.696-5.753-1.002-.22-2.216.527-3.332.827.834.972 1.511 2.569 2.525 2.822a1906.242 1906.242 0 0 0 38.21 9.106c.924.211 2.108-.712 3.172-1.107-.83-.906-1.507-2.331-2.516-2.626-4.13-1.209-8.361-2.072-13.363-3.27m167.867 272.91c1.421-6.648 2.957-13.275 4.154-19.962.21-1.165-1.01-2.586-1.568-3.888l-1.635.466c-2.926 13.239-5.895 26.47-8.684 39.737-.184.88 1.003 2.048 1.552 3.081.793-.868 2.042-1.618 2.303-2.624 1.373-5.293 2.496-10.652 3.878-16.81M50.28 292.957c-13.329 2.776-26.668 5.506-39.97 8.407-1.174.256-2.104 1.633-3.147 2.489 1.344.422 2.805 1.423 4.013 1.177 12.37-2.518 24.717-5.164 37.012-8.026 1.116-.26 1.823-2.276 2.092-4.047m104.234 167.141c3.581-7.486 7.228-14.943 10.66-22.496.437-.96-.244-2.426-.407-3.657-.975.513-2.455.776-2.848 1.575a1992.633 1992.633 0 0 0-16.824 35c-.423.902.256 2.318.422 3.495 1.103-.667 2.685-1.07 3.222-2.048 1.996-3.63 3.647-7.45 5.775-11.869m317.51-258.389c-6.01 1.289-12.007 2.635-18.033 3.84-2.712.543-3.8 1.627-2.1 4.433 12.913-2.751 25.747-5.425 38.534-8.309 1.245-.28 2.198-1.86 3.286-2.838-1.436-.301-2.954-1.063-4.295-.825-5.557.988-11.06 2.278-17.392 3.7m-9.158 98.124-11.491-2.727-1.123 1.392c1.106 1.138 2.035 2.971 3.346 3.305 10.742 2.739 21.542 5.258 32.364 7.664 1.304.29 2.845-.489 4.277-.772-1.119-1.085-2.07-2.803-3.384-3.151-7.674-2.035-15.434-3.75-23.989-5.71m5.346 60.457 3.64-.883c-.827-1.08-1.423-2.613-2.517-3.17-10.055-5.13-20.22-10.043-30.297-15.13-3.111-1.57-4.068-.396-4.244 2.66a10680.266 10680.266 0 0 0 33.418 16.523m-49.501 24.465c7.474 6.056 14.917 12.153 22.468 18.112.837.66 2.291.54 3.459.782-.336-1.256-.254-3.013-1.07-3.693-9.784-8.15-19.702-16.141-29.585-24.174l-1.584.689c.376 1.353.399 2.994 1.21 3.993 1.23 1.512 3.01 2.576 5.102 4.291m-205.908 19.205c.383 8.155.383 8.155 6.635 8.508-.173-3.821-.161-7.646-.607-11.417-.181-1.533-1.07-3.93-2.133-4.24-3.614-1.059-7.449-1.367-11.208-1.895-.038-.005-.202.889-.34 1.514 2.715 2.001 8.356.802 7.653 7.53m-24.769-3.485-2.52 4.535c3.44-.488 6.498-.003 7.671-1.267 3.062-3.298 5.298-7.363 7.742-10.945-4.377-3.245-7.037-1.76-9.108 2.174-.92 1.748-2.232 3.29-3.785 5.503z"/><path fill="#ECBB63" d="M253.625 1C254 17.095 254 33.19 254 51.043c-1.787-1.618-3.696-2.537-3.706-3.476-.153-14.797-.067-29.596.001-44.394.003-.447.413-.892.669-1.756C251.75 1 252.5 1 253.625 1z"/><path fill="#F6BC5E" d="M501 254.625c-15.474.36-30.949.397-46.421.235-1.25-.013-2.486-1.387-3.729-2.129l.685-1.746c5.941 0 11.884-.09 17.824.02 10.28.193 20.556.51 31.238.885.403.86.403 1.61.403 2.735z"/><path fill="#ECBB63" d="M1 249.375c15.138-.445 30.277-.554 45.414-.501 1.096.004 2.188 1.189 3.282 1.825-.695.72-1.394 2.071-2.085 2.068-15.27-.083-30.541-.316-46.211-.644-.4-.873-.4-1.623-.4-2.748z"/><path fill="#FEBD59" d="M249.4 501c-.4-14.41-.397-28.82-.402-43.23-.001-2.34-.475-5.078 3.736-3.71 0 15.277 0 30.655.133 46.487-.934.453-2 .453-3.467.453z"/><path fill="#F7FBFE" d="M138.003 291.54c2.11-6.295 5.676-11.594 10.965-15.796.855.441 1.839 1.405 2.23 1.205 2.327-1.184 4.516-2.637 7.034-3.99 3.148-.922 6.014-1.852 9.274-2.824 2.308-.528 4.28-.854 6.125-1.528 11.234-4.103 22.44-8.285 34.035-12.426 7.534-2.121 14.69-4.258 22.15-6.485-.77-1.109-1.23-1.77-1.955-2.707-.987-.45-1.71-.622-2.8-.82-9.878-3.256-19.384-2.62-29.263.018-3.107.98-5.84 1.935-8.904 2.93-.845.676-1.359 1.311-2.138 2.182-9.162 5.372-18.058 10.506-27.342 15.66-2.937.745-5.486 1.472-8.036 2.199-2.67-1.105-5.339-2.21-9.04-3.74l7.204-4.341c-2.97-2.522-5.66-4.805-8.481-7.695-.11-.833-.085-1.058-.061-1.282 17.839-5.027 35.65-10.154 53.535-15.01 4.583-1.245 9.397-1.637 14.731-2.748 2.97.525 5.312 1.378 8.151 2.41l-1.295-3.743c1.232 0 2.05 0 2.873.398-.25 5.015 2.517 6.063 6.92 6.157-.305-4.837-3.373-5.945-6.937-6.814-2.28-1.078-4.527-1.918-6.946-3.058-.787-.446-1.403-.59-2.027-.706-.009.03.052.028.052.028-2.966-1.257-5.831-3.191-8.916-3.651-11.83-1.765-23.698-3.514-35.616-4.34-6.383-.443-12.043-1.357-16.818-5.883-2.005-1.902-4.393-3.4-7.284-5.598l7.4-1.854-3.799-12.082.973-.845c9.076 9.318 21.494 9.802 32.81 13.314 11.413 3.542 22.757 7.427 33.81 11.948 5.214 2.134 9.676 6.108 15.534 9.062-.753-1.587-1.08-3.781-2.33-4.66-6.897-4.841-13.644-10.127-21.153-13.813-11.237-5.516-23.34-8.773-35.922-9.93-2.462-.226-4.944-.825-7.29-1.623-8.504-2.891-10.63-6.085-10.414-15 .07-2.922.01-5.848.01-10.01 3.221 2.741 5.21 5.013 7.689 6.433 6.72 3.852 13.293 8.487 20.565 10.741 15.665 4.856 30.194 11.333 42.357 22.542.581.535 1.36.856 3.088 1.915-.716-1.918-.802-3.091-1.433-3.695-8.398-8.027-16.76-16.1-25.406-23.854-2.146-1.924-5.176-3.586-7.971-3.918-6.31-.748-9.84-4.91-13.62-9.124-3.75-4.183-7.712-8.178-11.1-13.477 5.498 1.323 10.997 2.645 17.104 4.112.725-.238.842-.62.959-1.002-3.47-6.927.074-13.438 1.309-20.419 4.598 17.622 18.523 27.796 30.177 39.783 5.155 5.302 9.673 11.225 15.419 16.546-.382-1.576-.35-3.447-1.224-4.67-2.495-3.495-5.048-7.051-8.134-10.001-9.848-9.412-17.94-19.953-20.063-33.703-.986-6.385-.083-13.061 1.035-19.741 4.098 7.879 9.698 14.768 10.307 23.843.69 10.3 4.555 19.148 11.478 27.033 4.389 4.999 7.437 11.174 11.471 17.417-.366-2.302-.662-4.166-.713-6.65.965-1.919 2.285-3.206 2.314-4.522.283-12.65-3.56-24.21-9.827-35.046-.42-.724-1.378-1.136-2.849-2.294.333 1.675.416 2.41.627 3.108 3.307 10.95 6.699 21.878 9.869 32.869.41 1.423-.304 3.17-.498 4.766-5.704-12.894-10.789-26.112-17.308-38.58-5.251-10.042-6.577-20.146-4.64-31.293l10.043 17.407 1.01-.164v-11.963l1.49-.55c1.49 2.544 3.197 4.987 4.435 7.649 10.013 21.534 14.572 44.072 13.343 67.913-.375 7.289 1.396 14.689 2.31 23.205l10.982-98.837 4.042-2.575c1.602 7.128 3.445 14.551 4.845 22.057.396 2.121-.168 4.592-.857 6.719-4.983 15.375-4.473 30.93-2.166 47.953l16.536-71.324 10.88 22.954 8.417-11.617 1.56.317c0 6.765.065 13.532-.072 20.294-.02 1.005-.826 2.131-1.543 2.965-11.784 13.7-20.711 28.912-25.142 46.595-1.224 4.887-2.89 9.664-4.354 14.49l1.382.624c.887-1.692 1.92-3.324 2.634-5.086 3.559-8.786 6.653-17.784 10.667-26.353 2.806-5.988 6.57-11.586 10.37-17.035 6.151-8.824 12.684-17.383 19.256-26.327v18.848l14.504-7.225-10.116 20.109 1.327 1.357 18.866-13.643-4.202 17.028 11.853-1.12c.29.35.578.702.868 1.053l-15.539 18.775.361.978 14.38-7.003.971 1.013-12.492 21.495 22.523 7.372-.284 1.223-14.286 2.135-.186 1.33 18.331 6.362-14.576 4.345c7.055 5.49 15.248 6.99 24.042 8.93-5.231 2.902-11.553 1.682-15.587 5.348l.523 2.067c-2.536-.392-5.072-.784-8.041-1.538-2.233-1.226-4.033-2.09-5.832-2.953l-.775 1.426 4.176 2.837c3.992 4.39 7.985 8.78 12.042 13.797.045 1.234.024 1.84.004 2.447-7.725 2.38-11.332-3.265-15.766-8.43-.881-.956-1.442-1.408-2.18-2.15a57.703 57.703 0 0 0-6.22-3.66c-.53-.035-.741-.046-.953-.39-6.281-4.105-12.561-7.878-18.983-11.852-.362-.454-.629-.641-1.29-.834-.576-.138-.803-.206-1.13-.803 2.45-.42 4.998-.31 7.807-.017.425-.867.59-1.918 1.023-3.326 1.1-.11 1.93.139 3.06.586 3.384.993 6.47 1.785 9.554 2.577l.692-1.83c-4.076-1.637-8.152-3.275-12.58-4.952-10.881-3.835-21.524-6.173-32.578-3.177l-.161 1.352 9.306 1.228-.133 1.176c-3.46 0-6.918 0-10.386-.302-.445-1.096-.88-1.89-1.317-2.684-3.193 1.802-6.386 3.604-9.573 5.36.007-.046.096-.018-.204-.01-.595.327-.89.647-1.186.967l11.205 7.723 1.183-1.644c-1.382-1.084-2.763-2.168-3.707-3.277 2.188-.039 3.94-.052 6.07-.018 1.4.096 2.42.144 3.24.423-1.056.973-1.912 1.715-3.15 2.442-3.549 2.539-.054 2.773.986 3.309 12.435 6.401 24.933 12.678 37.634 19.25 3.819 1.585 7.419 2.907 11.274 4.4.643.28 1.032.39 1.457.47.036-.027-.014-.104.1.246.724.46 1.335.569 1.947.627 0-.05-.101-.051-.316.245-.067.49.08.684.374 1.157 1.443.004 2.739-.273 4.035-.55 1.699 4.8 3.398 9.599 4.746 14.772-14.49-6.734-28.629-13.843-42.944-21.19-1.084-.605-1.992-.972-3.181-1.545-3.06-1.592-5.836-2.978-8.804-4.59-.912-.524-1.633-.823-2.607-1.344-4.928-2.51-9.604-4.8-14.607-7.403-1.179-.35-2.028-.385-2.878-.42l.652 1.749c-.703-.379-1.407-.758-1.744-1.421-.82-3.786-3.81-4.73-6.559-3.504-1.794.8-4.01 3.862-3.71 5.481.618 3.348 1.89 6.346-.907 9.226l1.489.8c-.38.161-.76.322-1.125-.02-3.819-.231-7.653.04-11.623.023-.633-.941-1.13-1.592-1.921-2.629-.194.91-.31 1.457-.841 2.144-2.204.037-4.055.192-5.765-.228-2.863-.704-6.501-.56-6.718-5.116-.188-1.84-.57-3.415-1.154-5.298-3.094-.7-5.986-1.092-9.232-1.546-4.043 1.204-7.732 2.47-11.777 3.733-5.526 1.958-10.697 3.92-16.175 5.89-1.027.37-1.747.733-2.771 1.1-9.548 3.492-18.814 6.92-28.002 10.547-1.018.402-1.593 1.928-2.374 2.932 0 0-.023.032.007-.472-3.461.487-6.956 1.47-10.42 2.55-.055.018.268 1.244.414 1.907-.23.238-.462.477-.329.618.504-4.013-1.59-2.107-3.544-1.428-2.462.954-4.579 1.87-7.2 2.83-1.165.192-1.824.34-2.484.487m90.07-49.32.265-.008s-.29-.246-.6-.74l-1.92-.885-.287.833c.81.211 1.62.423 2.542.8m98.063 12.359 1.16-.122c-.354-.24-.708-.48-1.571-1.157l-3.747-1.328-.386 1.325c1.394.326 2.787.653 4.544 1.282m-76.805-44.896c-.044 5.147-.206 10.297-.098 15.44.106 5.002-.314 10.116 1.92 14.88 2.834-16.79 2.296-33.51-.141-50.303-.555 6.343-1.11 12.686-1.68 19.983m82.749 45.877-2.217-.394-.337.923 5.524 2.793.615-1.086a65.422 65.422 0 0 0-3.585-2.236m-13.553-4.548c-.106.247-.231.488-.301.745-.014.049.192.157.297.238.083-.257.166-.514.004-.983m-95.775-34.65.923 1.02c-.115-.503-.229-1.006-.923-1.02m8.71 34.133s.05-.02 0 0z"/><path fill="#BB8F03" d="M96.18 239.988c4.525 1.913 9.4 3.277 13.477 5.889 4.37 2.801 6.318 7.548 6.284 12.917-.043 6.618-.01 13.236-.01 20.322 3.407-1.577 6.275-3.119 9.307-4.201 1.177-.42 2.724.194 4.103.337-.187 1.25.05 2.845-.635 3.692-3.015 3.724-6.01 7.558-9.583 10.704-2.393 2.107-3.3 4.095-3.251 7.18.166 10.466.063 20.935.063 31.778h-44.68v-9.09c0-4.326-.407-8.7.08-12.97 1.214-10.648-.195-19.599-11.4-24.724-3.004-1.375-7.107-4.317-5.299-8.71.309-.75 6.492.69 9.864 1.515 2.025.496 3.861 1.762 6.755 3.147 0-5.449-.002-10.303 0-15.156.004-13.805 7.026-21.367 21.404-22.126.6 9.83-.762 19.28 2.201 28.447 2.715-9.6 2.63-19.252 1.32-28.951m2.333 32.886c-1.121-.249-2.643-1.081-3.29-.637-1.952 1.34-4.812 3.02-5.038 4.85-.408 3.308 2.587 4.74 5.744 4.614 4.738-.188 6.168-4.02 2.584-8.827m3.37-9.95-1.983 3.955c2.618.853 5.229 2.289 7.857 2.322 1.369.018 2.769-2.438 4.154-3.777-1.989-1.133-3.9-2.464-6.004-3.307-.901-.361-2.208.293-4.023.807m-18.46-.083c-2.942.298-6.82.265-6.083 4.335.255 1.406 4.497 2.79 6.955 2.858 1.773.05 3.607-2.095 5.414-3.26-1.82-1.302-3.64-2.603-6.286-3.933z"/><path fill="#F4FBFE" d="M136.537 375.498c-4.366 2.04-8.938 3.737-13.04 6.214-4.26 2.572-7.325 1.899-10.39-2.46l23.753-11.584c-1.303-3.642-6.964-4.372-6.998-8.395l1.717-1.083c1.427 1.13 2.993 2.124 4.253 3.417 3.061 3.14 5.947 4.567 10.417 1.907 1.446-.86 4.67 1.271 7.082 2.034l-.187 1.475-6.314 3.595 10.382 8.536 3.246-5.507 21.929 11.293c2.07 1.066 4.255 1.965 6.163 3.269.969.662 1.44 2.053 2.136 3.115-1.168-.036-2.494.278-3.473-.169-3.47-1.584-6.822-3.427-10.594-5.365l-2.609 3.66 13.959 7.452c-1.926 1.345-3.41 2.3-4.806 3.372-4.202 3.227-7.893 6.428-5.117 12.792.733 1.68-1.098 4.477-2.905 6.665l-2.64-9.287-6.748 5.45-11.475-5.943 5.346-9.638-4.554-2.602-5.405 9.738-5.461-2.846 11.521-22.313-10.61-8.645-5.292 27.464c-4.64-1.93-6.56-4.575-5.04-9.672 1.37-4.592 1.796-9.466 2.785-14.82-.246-.775-.638-.947-1.03-1.119m27.527 33.736c1.45-1.32 2.813-2.751 4.368-3.933 2.664-2.025 2.456-4.113.258-7.122-2.142 3.851-4.023 7.234-6.33 10.873.378.187.756.375 1.704.182z"/><path fill="#8D8B7E" d="m436.128 306.533 5.04 22.16H368.31c1.524-7.329 2.982-14.345 4.981-21.678 1.31-.263 2.078-.21 2.89.012.261.06.48-.05 1.17-.209 5.202-.031 9.931-.012 14.851.298 1.388.097 2.586-.097 4.163-.32 1.14-.048 1.9-.066 2.814.206 1.038.131 1.923-.027 3.144-.21.787-.01 1.236.006 1.824.27.695.015 1.251-.22 2.197-.428 3.494.005 6.598-.016 9.81.217.752-.012 1.397-.278 2.438-.53 3.984.048 7.573.084 11.332.387 1.459.163 2.747.059 4.398-.033a26.47 26.47 0 0 0 1.806-.142z"/><path fill="#F3FAFE" d="m339.036 413.05 2.659-14.263c-4.648-2.191-11.267.55-15.302-5.25l10.486-6.996-.034-1.517c-1.415-.074-3.05-.64-4.204-.127-3.408 1.514-6.626 3.455-10.27 5.171-.352-.058-.312.005-.312.005.666-1.298 1.014-3.01 2.06-3.812 2.761-2.113 5.825-3.83 8.948-5.819l-1.913-4.13 5.129-3.308 3.577 4.231c4.044-3.742 8.127-7.086 11.616-10.964 1.388-1.543.863-4.883 2.302-6.283 1.432-1.396 4.444-1.023 6.351-2.134 1.04-.606 1.189-2.697 1.806-4.088.378-.852.765-1.743 1.35-2.45 2.651-3.212 5.374-6.365 8.072-9.539l-.563 2.63 16.815 16.024 1.313-.947-6.062 6.38 7.587 8.004c-1.647 1.44-3.195 2.794-5.354 3.89-.79-.097-.967.066-1.119.24.026.01.055.059.175-.322-.322-.49-.764-.597-1.178-.69.027.016.058.071.178-.312-.322-.49-.764-.597-1.179-.687.028.015.059.071.183-.315-.32-.49-.766-.596-1.185-.684.026.017.053.074.243-.3-.452-.817-1.095-1.258-1.933-1.706-.558-.146-.92-.285-.926-.727-.22-.974-.796-1.646-1.347-2.297.024.02.05.078-.012-.204-.383-.457-.706-.632-1.003-.795.027.012.063.058-.048-.293-1.066-.446-2.02-.54-2.96-.656.014-.022.066-.04-.296-.122-.48.333-.6.749-.703 1.137.015-.027.07-.057-.295-.14-.483.334-.601.75-.705 1.14.015-.027.07-.057-.298-.144-.484.332-.6.752-.701 1.145.015-.027.07-.057-.301-.152-.485.33-.6.755-.699 1.153.016-.028.07-.058-.304-.159-.487.329-.598.758-.695 1.16.015-.028.07-.058-.307-.166-.487.326-.597.76-.693 1.166.016-.027.071-.058-.309-.17-.489.326-.597.762-.69 1.171.016-.028.071-.059-.312-.178-.49.323-.596.765-.687 1.18.015-.029.071-.06-.315-.185-.49.321-.596.767-.686 1.19.016-.024.068-.044-.18-.34-1.13.556-2.01 1.409-2.89 2.261-.841-.368-2.448-.946-2.413-1.074 1.274-4.632-3.135-5.369-4.596-7.274l-13.37 9.564c5.758 4.215 8.165-3.35 12.743-2.71l-3.89 15.732 17.086 2.247c-5.245 6.992-12.119 4.127-18.494 3.788-2.491 4.893-1.385 11.81-8.618 13.798-.35-.01-.328.021-.328.021m2.555-20.542 4.29-5.447-1.355-1.184-9.505 5.866c2.358.257 4.082.444 6.57.765z"/><path fill="#43887D" d="M395.973 244.016c-.212-.246-.376-.6-.645-.72-1.935-.873-3.89-1.698-5.84-2.538 1.826-.81 3.788-1.406 5.45-2.472 3.396-2.18 6.631-4.611 10.366-7.244 2.425 4.332 6.687 7.66 12.763 8.216.597.055 1.116.972 1.671 1.49-.603.645-1.099 1.63-1.833 1.864-1.351.43-2.843.418-4.387 1.42l4.41.821c-1.11 4.57-1.343 8.599 4.653 9.485.53.079.802 1.91 1.308 3.292.114.365.14.346-.28.267-2.355.064-4.291.206-6.227.347l.123 1.32c2.157-.196 4.314-.393 6.49-.572.018.018.058.05.058.05-1.724 4.847-.552 8 4.95 8.941.761.13 1.316 1.46 1.966 2.234-.842.594-1.615 1.36-2.546 1.734-.992.398-2.134.424-3.211.612l-.673 1.545 7.034 3.898 4.256 2.353c-1.485.89-2.964 1.792-4.46 2.664-.564.329-1.168.59-2.468.906-4.306-.238-7.898-.5-11.804-.7-.907.297-1.501.533-2.225.809-.13.04-.384.14-.567-.054-.957-.935-1.73-1.677-2.438-2.857.108-.731.15-1.024.564-1.125 5.975.522 11.578.853 17.18 1.183-1.739-2.2-3.537-4.12-5.424-4.21-4.768-.229-9.576.366-14.794.812-2.08-.774-3.733-1.729-5.665-2.657-.93.702-1.583 1.375-2.66 1.987-.71-.102-.994-.14-1.557-.47-7.046-.833-13.965-2.106-19.339 4.694 5.601-.478 11.202-.956 16.808-1.113.008.746.01 1.172-.204 1.868-.57.837-.926 1.405-1.28 1.939.003-.035.07-.022-.296-.045-.609.002-.852.026-1.496.028-.934-.056-1.467-.09-2.247-.43-3.327-.397-6.407-.49-9.757-.461-.794.394-1.32.667-1.844.94l-6.45-3.5c2.158-1.102 4.38-2.097 6.45-3.341 1.644-.987 3.103-2.28 4.794-3.548-1.02-.947-1.214-1.247-1.486-1.36-1.671-.694-3.36-1.345-5.042-2.01 1.403-1.025 2.677-2.363 4.238-3.01 3.23-1.338 4.492-3.165 2.817-6.552-.31-.627.11-1.614.71-2.29 2.427.27 4.338.398 6.57.58 1.882.21 3.44.367 6.499.675l-5.293 4.59.047 1.252 6.703-.515c2.873.058 5.293.15 8.022.43 2.296.296 4.284.406 6.745.543l-4.788-5.346 4.213-2.663c-4.065-1.098-4.065-1.098-6.24 1.695-.641-.723-1.015-1.255-1.544-1.979-.608-.377-1.06-.562-1.747-.971-1.644.765-3.055 1.753-4.708 2.266-2.952-.668-5.661-.86-8.791-1.118-2.113-.039-3.804-.012-5.496.014.39-1.269.55-3.5 1.203-3.656 5.44-1.29 5.452-4.91 4.026-9.508 1.535-.211 2.762-.38 4.348-.535.439.002.518-.009.596-.02l-.279-.174m25.068 28.04c-.772-.56-1.543-1.121-1.352-1.845l7.37-.436c-8.295-4.009-39.508-3.62-43.219.112 2.155.162 4.31.324 6.318 1.356l-3.667 2.191h15.153l-.022-1.345c-2.38 0-4.786.207-7.133-.074-1.505-.18-2.924-1.08-3.356-1.757 9.264.035 18.528.07 27.69 1.06l-11.396 1.316.075 1.354c4.826 0 9.653 0 14.936-.232-.197-.566-.395-1.131-1.397-1.7m-26.804-22.517c1.093.854 2.146 2.373 3.287 2.444 4.61.283 9.249.056 13.875.139 4.147.074 4.124-2.06 3.059-5.186-5.837 0-11.442-.089-17.04.079-1.047.031-2.064 1.091-3.181 2.524m13.93-6.582h-9.511c.02.48.042.96.064 1.44h12.028l.058-.892c-.579-.176-1.158-.352-2.64-.548m-19.593 18.814.746.524c-.16-.258-.318-.517-.746-.524m29.401-6.954-.503.437.294.293c.145-.17.29-.338.21-.73m-26.906-.016-.122.71c.135-.003.383.013.387-.015.042-.236.04-.48-.265-.695m-.536 9.703s-.048.02 0 0z"/><path fill="#DA6510" d="M248.425 273.807c3.834-.272 7.668-.543 11.28-.29-3.38 1.686-6.538 2.846-8.92 3.721-3.986 13.05-8.176 25.786-11.752 38.693-6.409 23.126 4.693 48.683 25.812 60.29.703.386 1.381.818 3.378 2.006-5.978.358-10.579.98-15.133.734-1.806-.097-3.973-1.763-5.187-3.327-14.194-18.276-21.792-38.1-13.334-61.295 3.756-10.303 7.86-20.48 11.666-30.766.714-1.93.762-4.107 1.09-6.02-4.46-.878-8.435-1.375-12.228-2.494-3.373-.994-6.022-3.036-4.688-7.628 1.094-.048 1.767.238 2.44.524.412 4.29 4.05 4.146 6.913 4.85 1.71.42 3.561.265 6.015.465a61.04 61.04 0 0 1 2.648.537z"/><path fill="#F6FCFE" d="M366.635 129.683c4.255-3.473 8.41-7.084 12.832-10.328 1.219-.894 3.24-.695 4.893-.998l.61 1.77-29.408 24.386-5.417-4.411 6.951-11.293-.796-.835-10.66 8.326-5.188-4.288 20.392-32.286 5.574 4.397c-3.44 5.42-6.745 10.624-10.05 15.829l1.38 1.18 13.926-12.504 4.278 3.675a6465.31 6465.31 0 0 1-10.288 16.36c-.389.917-.454 1.355-.52 1.792l1.49-.772m-10.026-9.13-.939.995c.432-.126.864-.252.939-.994z"/><path fill="#F4FBFE" d="M290.887 97.972c-.965 3.238-1.838 6.08-2.873 9.451l-6.71-1.794 10.495-36.528c5.799 1.713 11.245 3.117 16.515 5.012 1.453.522 3.004 2.327 3.441 3.85 1.662 5.796-3.765 14.684-9.47 16.153 0 2.837-.09 5.659.026 8.473.115 2.812.436 5.616.728 9.172l-6.727-1.842-1.604-18.813-1.53-.2c-.733 2.223-1.467 4.446-2.291 7.066m5.69-9.933c1.932-.177 5.172.23 5.561-.638 1.366-3.048 2.403-6.584 2.163-9.831-.088-1.182-4.107-2.073-6.634-3.236-1.189 4.154-2.23 7.29-2.913 10.502-.19.897.677 2.02 1.823 3.203z"/><path fill="#F3FBFE" d="M283.05 86.205c-.666 4.882-1.173 9.343-1.966 13.751-.63 3.5-3.07 5.069-6.518 4.733-3.634-.353-7.238-1-10.86-1.488-4.145-.557-5.749-3.249-5.337-7.023.884-8.09 1.896-16.173 3.152-24.212.858-5.486 2.62-6.597 8.194-6.158 15.763 1.242 16.3 1.927 13.717 17.485-.136.82-.232 1.646-.382 2.912m-14.669 14.022c4.409 1.504 6.038-.628 6.473-4.727.7-6.594 1.498-13.18 2.415-19.747.439-3.147.47-5.454-3.691-5.964-3.914-.48-4.999 1.396-5.38 4.641-.811 6.916-1.843 13.811-2.426 20.745-.133 1.572 1.195 3.267 2.61 5.052zm-43.059 314.852c-.67-4.005-1.327-7.535-2.004-11.175h12.098l.914-5.417 6.275.49v5.683c3.48.233 6.753.373 10.004.724.835.09 1.598.843 2.394 1.292-.451.743-.871 1.507-1.361 2.223-.502.733-1.43 1.361-1.556 2.136-1.09 6.71-2.042 13.444-3.066 20.38 1.224.209 2.248.207 3.107.584.73.32 1.269 1.076 1.892 1.639-.683.506-1.39 1.481-2.046 1.448a1506.024 1506.024 0 0 1-29.4-1.774c-.763-.053-1.467-.95-2.198-1.455.762-.61 1.445-1.409 2.311-1.771.7-.293 1.62-.06 2.65-.06 0-4.957 0-9.715-.014-14.947m6.664-3.48c.091 5.46 0 10.937.428 16.372.084 1.07 2.169 2.794 3.332 2.795 2.3.002 6.371-.585 6.611-1.636 1.529-6.694 2.212-13.581 3.235-20.84-4.236-.224-7.85-.586-11.447-.468-.754.024-1.45 1.816-2.159 3.776z"/><path fill="#F6FCFE" d="M175.067 114.05c-1.76-4.879-3.416-9.8-5.308-14.627-1.921-4.899-4.076-9.706-6.265-14.877 5.109-2.19 9.762-4.307 14.511-6.179 3.499-1.378 6.326-.116 7.812 3.24 3.486 7.873 6.883 15.791 10.07 23.79 1.426 3.583.238 6.518-3.504 8.107-3.659 1.554-7.43 2.891-10.942 4.726-2.836 1.482-3.874.182-5.075-2.176-.353-.048-.329-.002-.204-.359-.317-.82-.76-1.284-1.176-1.722.026.027.08.077.08.077m11.748-12.373c-2.003-4.716-3.987-9.44-6.015-14.145-2.435-5.651-3.852-5.94-9.168-1.763l11.562 27.197c6.895-1.67 7.28-2.37 4.841-8.295-.314-.764-.649-1.52-1.22-2.994zm190.181 34.331c2.579-2.137 4.87-4.066 7.182-5.968.64-.527 1.278-1.157 2.03-1.431 8.542-3.116 9.813 5.343 13.985 9.026 3.072 2.712 3.218 6.302-.036 9.136-6.522 5.68-13.233 11.142-19.892 16.665-.628.52-1.407 1.116-2.163 1.188-8.17.786-9.643-6.974-13.779-11.191-2.782-2.838-.893-5.911 1.721-8.184 3.515-3.057 7.111-6.02 10.952-9.241m7.476 2.944c-4.322 3.617-8.582 7.311-12.988 10.822-2.678 2.133-2.75 3.988-.52 6.597 2.114 2.474 3.924 2.564 6.276.566 5.684-4.828 11.392-9.63 17.151-14.369 2.545-2.093 2.175-3.994.275-6.333-1.996-2.457-3.872-2.824-6.218-.615-1.084 1.02-2.288 1.914-3.976 3.332z"/><path fill="#F6FCFE" d="M176.005 115.982c-1.3 5.03-11.493 14.12-16.758 14.013-2.155-.044-5-1.906-6.265-3.791-5.551-8.273-10.639-16.857-16.194-25.811l5.888-3.884c3.655 5.884 7.204 11.599 10.755 17.313 1.491 2.4 3.157 4.711 4.437 7.22 1.958 3.837 4.184 4.4 7.863 1.906 3.046-2.066 3.459-3.834 1.507-6.882-5.194-8.108-10.169-16.356-15.5-24.983l5.854-3.75c5.678 9.046 11.218 17.871 17.116 26.707.359.01.304-.04.177.293.3.795.726 1.257 1.152 1.719 0 0-.024-.046-.032-.07z"/><path fill="#F4FBFE" d="m292.043 402.667-13.78 5.755 16.003 21.152c-4.36 2.332-7.466 1.967-10.226-2.217-3.01-4.564-6.562-8.77-10.532-13.992-1.776 5.893-3.62 10.924-4.76 16.11-1.073 4.879-3.852 6.053-8.552 5.202l7.484-25.744c-3.074.384-5.585.83-8.112.943-.883.039-1.803-.746-2.707-1.155.69-.69 1.277-1.778 2.093-1.992 2.08-.547 4.413-.331 6.356-1.128 1.715-.703 3.735-2.066 4.407-3.652 2.042-4.817 1.813-4.914 8.269-4.967-.504 2.228-.99 4.377-1.439 6.355 5.016 0 9.847 0 15.068-.376.39-.376.428-.294.428-.294z"/><path fill="#F7FBFE" d="M292.057 403.056c-.014-.39-.052-.47-.05-.493.036-.849.07-1.676.826-2.57 2.529-.908 4.336-1.752 6.143-2.596l4.727-1.804-2.986-4.554c2.585-2.038 4.811-3.115 7.367.235.686.9 2.652 1.563 3.687 1.239.921-.289 1.997-2.144 1.91-3.22-.307-3.844 1.789-4.878 4.75-5.116 2.364 1.282-1.64 5.587 3.306 5.717.322.179.282.116.254.092.644 2.158 1.315 4.34 2.155 7.073-3.611 1.71-8.705 2.591-7.433 9.049 3.28-1.001 6.609-2.017 10.145-2.39.185 1.163.163 1.682.14 2.202l-9.938 4.176c2.354 12.014 2.088 12.65-5.891 14.01v-11.84c-4.703 1.65-8.213 3-11.808 4.061-.96.283-2.18-.32-3.28-.516.754-.875 1.34-2.105 2.295-2.556 2.394-1.13 5.142-1.591 7.388-2.925 1.897-1.127 3.29-3.102 4.905-4.702l-1.024-1.004-15.481 4.093c-.89-2.242-1.491-3.757-2.107-5.661m23.063-4.449 1.786-2.4c-.943-.287-2.042-1.04-2.805-.786a211.04 211.04 0 0 0-13.467 5.004c-.755.31-1.107 1.597-1.646 2.432.947.216 2.028.84 2.818.58 4.234-1.392 8.396-3.005 13.314-4.83z"/><path fill="#ECF8FD" d="M216.99 233.01h-2.868l1.295 3.742c-2.839-1.032-5.182-1.885-7.889-2.741-2.688-.581-5.07-1.815-7.326-1.614-7.765.692-15.476 1.961-23.224 2.868-9.893 1.158-19.804 2.165-29.703 3.263-3.047.338-4.946-.852-6.241-3.708-1.688-3.721-3.783-7.258-6.413-12.213 16.284 9.518 32.611 7.513 48.849 6.839 7.944-.33 15.921.128 24.236-.101.351-.331.29-.33-.018-.114.634.398 1.575.58 2.516.76 2.247.84 4.495 1.68 6.77 2.765.026.244.017.253.017.253m-5.887-.354-.091-.303s-.1.301.091.303z"/><path fill="#F1FAFE" d="M100.449 134.431c1.827-2.19 3.28-4.261 5.08-5.965.807-.765 2.31-.796 3.497-1.16l.722 1.375c-2.058 2.54-4.017 5.172-6.203 7.598-2.27 2.519-2.182 4.5.528 6.665 6.14 4.906 6.409 6.607 11.949-.778 2.824-3.764 6.1-4.163 9.859-1.212 11.26 8.842 11.032 9.8 2.567 19.34-1.434 1.617-2.692 3.402-4.225 4.913-.53.523-1.647.452-2.496.653-.032-.982-.474-2.25-.023-2.893 1.616-2.309 3.933-4.203 5.185-6.662.722-1.416.354-3.816-.356-5.401-.613-1.37-2.457-2.157-3.659-3.304-2.75-2.627-4.8-2.314-7.454.595-2.147 2.352-6.35 5.83-7.947 5.1-4.3-1.965-8.516-5.345-11.208-9.24-2.495-3.612 1.908-6.465 4.184-9.624z"/><path fill="#4A8A7B" d="M379.892 284.437c.489-.643 1.014-.916 1.668-.905-.344 3.466 1.203 4.145 3.848 3.139 2.14-.815 4.2-1.843 6.296-2.777.533.034 1.066.068 1.919.448-.385 1.28-1.09 2.211-1.826 3.188h26.382l-3.177-3.532c.594-.236 1.188-.472 2.282-.514a898.57 898.57 0 0 0 11.637 3.21c2.775 1.514 5.572 2.988 8.312 4.562 1.003.575 1.87 1.388 2.798 2.093-1.006.935-2.012 1.87-3.836 2.784-1.373-.006-1.928.008-2.902.137-5.37.583-10.323 1.052-15.683 1.582-1.793.057-3.178.052-4.792-.261-2.723-.96-5.163-1.435-6.83 1.361-.944-.76-1.627-1.31-2.723-1.83a588.8 588.8 0 0 0-8.625.715c-1.808.07-3.206.07-4.837-.242-2.365.188-4.495.69-6.91 1.36-.596.478-.909.788-1.313 1.118-.092.02-.278.049-.553-.201-2.881-1.409-5.489-2.567-8.096-3.726l-3.874-2.44c1.291-.863 2.482-2.196 3.893-2.5 3.697-.794 6.576-2.156 6.942-6.769m38.562 5.558c-6.152 0-12.312-.196-18.454.046-8.935.352-18.289-2.074-27.028 4.225h62.508l.18-1.947c-5.41-.775-10.818-1.55-17.206-2.324z"/><path fill="#F3FBFE" d="M210.807 88.145c1.08 6.277 2.237 12.121 3.505 18.523l-6.979 1.83c-.528-14.181-8.445-24.335-17.464-34.235 4.308-2.376 7.326-2.68 9.931 1.71 1.837 3.093 4.444 5.73 6.921 8.838 3.484-5.453 1.186-13.083 6.192-17.26l1.89.775c-1.306 6.462-2.612 12.924-3.996 19.819z"/><path fill="#F6FCFE" d="M194.168 423.25c4.004 1.115 7.65 2.118 11.77 3.252V413.35c5.327-.075 7.91 1.707 7.164 7.276-.48 3.58-.09 7.275-.09 11.398l-30.637-8.533c4.856-6.258 9.034-12.263 13.968-17.565 1.241-1.334 4.904-.416 8.699-.59-4.479 5.768-8.005 10.176-11.326 14.733-.476.654.038 2.028.452 3.18z"/><path fill="#F3FBFE" d="M340.92 88.12c3.95 2.209 7.645 4.133 11.14 6.371.909.583 1.19 2.144 1.76 3.256l-1.364.801-7.596-3.979-16.837 29.846-6.124-3.362 16.65-29.913-7.36-4.554c1.771-2.934 1.771-2.934 9.73 1.535z"/><path fill="#F4FBFE" d="M135.38 133.635c-4.731-5.398-9.221-10.535-13.945-15.939l-8.003 6.666c.22-2.55-.142-4.22.495-4.81 5.008-4.64 10.171-9.115 15.392-13.517.654-.552 1.922-.376 2.905-.537-.224 1.072-.124 2.414-.743 3.16-1.249 1.503-2.888 2.682-4.716 4.305l22.562 25.902-5.273 4.63a6721.169 6721.169 0 0 0-8.674-9.86z"/><path fill="#FAFDFF" d="M243.063 87.356c-.013 5.274-.013 10.08-.013 15.24h-6.788V64.765c5.65 0 11.58-.067 17.505.083.75.02 1.472 1.174 2.207 1.803-.712.483-1.406 1.353-2.137 1.384-3.455.147-6.92.066-10.655.066v13.042c3.826 2.077 9.215-1.315 12.727 1.754l-.478 2.232c-2.963 0-5.94-.165-8.883.08-1.196.1-2.317 1.093-3.485 2.147z"/><path fill="#15A8EB" d="M157.802 266.94c8.896-5.135 17.792-10.27 27.27-15.636.996-.301 1.411-.372 2.223-.448 10.701-2.829 21.148-3.461 31.995-1.994.581.307.896.552 1.21.796-.135.055-.266.133-.407.16-11.009 2.119-22.02 4.233-33.385 6.411-8.678 4.11-17.059 8.042-25.268 12.305-1.519.789-2.346 2.91-3.492 4.415-2.234 1.363-4.423 2.816-6.75 4-.391.2-1.375-.764-2.088-1.568.315-.7.633-1.021 1.474-1.462 2.754-2.406 4.986-4.692 7.218-6.979z"/><path fill="#F6FCFE" d="M377.995 372.558c.363.139.725.278 1.23.787.693.819 1.244 1.268 1.796 1.717 0 0-.027-.057.006.208.357.438.68.613 1.002.788 0 0-.031-.056-.005.214.353.44.679.613 1.005.785 0 0-.03-.055-.008.216.351.442.68.613 1.008.784 0 0-.029-.048-.021.279.121.764.236 1.2.35 1.637l-10.367 12.169c-4.796-5.076-8.28-8.764-11.53-12.885.687-1.044 1.14-1.654 1.593-2.265 0 0-.052.02.214-.016.44-.36.615-.682.79-1.005 0 0-.056.031.213.004.44-.353.614-.679.786-1.005 0 0-.055.031.216.009.443-.352.613-.68.783-1.01 0 0-.055.032.22.015.444-.35.611-.682.78-1.014 0 0-.056.03.223.018.444-.348.61-.683.775-1.019 0 0-.054.03.228.023.445-.346.608-.685.771-1.023 0 0-.054.03.23.026.447-.344.608-.685.77-1.027 0 0-.055.03.233.032.447-.343.607-.688.766-1.032 0 0-.054.03.238.034.447-.34.603-.686.758-1.032 0 0-.052.018.259.228 1.122.414 1.934.617 2.746.82 0 0-.036-.047-.19.328.295.48.743.585 1.191.69 0 0-.025-.057-.298.256.23.964.735 1.615 1.24 2.266m-8.292 5.486 5.426 6.804c3.487-5.19-.726-5.992-2.06-7.82-.384-.527-2.377.12-3.366 1.016z"/><path fill="#EEBB62" d="M100.554 55.36c-.372-1.7-.51-3.123-.648-4.547 1.19.554 2.782.79 3.51 1.71 9.498 11.994 18.874 24.085 28.295 36.17-1.864 3.923-3.43 2.327-5.197.043-8.545-11.056-17.146-22.07-25.96-33.375zm327.6 44.814c4.105-3.398 7.852-6.682 11.831-9.657 1.015-.759 2.762-.538 4.173-.767-.566 1.357-.755 3.162-1.754 4.003-11.034 9.277-22.194 18.405-34.13 28.24l-2.376-3.437c7.446-6.148 14.716-12.15 22.256-18.382zm-278.719-69.73a16969.544 16969.544 0 0 1 17.973 37.498l-.814 1.43c-1.26-.565-3.204-.79-3.677-1.745-6.182-12.473-12.197-25.03-18.1-37.637-.472-1.006.195-2.545.333-3.837 1.365 1.323 2.73 2.646 4.285 4.29zm150.969 430a4526.504 4526.504 0 0 1 6.23 28.099c.316 1.452.662 2.968.541 4.416-.058.705-1.067 1.541-1.837 1.876-.324.14-1.315-.757-1.694-1.372-.414-.674-.503-1.561-.68-2.367-2.766-12.64-5.43-25.302-8.353-37.905-.652-2.81-.314-4.163 3.253-4.066.788 3.555 1.604 7.236 2.54 11.319z"/><path fill="#F1BB61" d="M83.477 112.497c-6.975-5.674-13.738-11.05-20.325-16.634-1.137-.963-1.532-2.804-2.269-4.239 1.544.303 3.478.116 4.573.985 11.049 8.776 21.96 17.726 33.146 26.817-.874 2.35-1.61 4.112-4.394 1.762-3.427-2.891-6.967-5.648-10.73-8.69z"/><path fill="#ECBB63" d="M39.278 358.223c-2.708 1.354-5.02 2.695-7.478 3.67-.834.331-2.033-.26-3.065-.43.458-1.05.626-2.574 1.427-3.066 2.68-1.645 5.583-2.926 8.405-4.339 9.206-4.612 18.441-9.166 27.602-13.868 2.506-1.286 4.015-1.26 4.429 2.349a38683.92 38683.92 0 0 1-31.32 15.684z"/><path fill="#EEBB62" d="M301.429 22.302c.85-3.635 1.43-6.91 2.377-10.077.296-.99 1.579-1.684 2.41-2.514.527 1.022 1.672 2.174 1.488 3.047a2082.515 2082.515 0 0 1-8.789 39.795c-.189.818-1.666 1.34-2.543 2-.416-1.23-1.384-2.573-1.161-3.673 1.907-9.417 4.03-18.79 6.218-28.578zm-95.662 6.835c1.641 7.547 3.282 14.666 4.632 21.84.24 1.27-.732 2.768-1.144 4.16l-1.984-.239c-1.633-7.2-3.28-14.399-4.894-21.604-1.377-6.155-2.859-12.292-3.974-18.495-.286-1.595.635-3.407 1.002-5.119.949 1.333 2.357 2.54 2.764 4.023 1.36 4.956 2.36 10.01 3.598 15.434z"/><path fill="#F1BB61" d="M396.56 428.42c3.608 4.602 7.12 8.836 10.285 13.316.926 1.31.86 3.322 1.248 5.012-1.42-.782-3.265-1.227-4.197-2.397-8.602-10.802-17.046-21.728-25.674-32.796 1.527-2.5 2.81-3.237 4.94-.36 4.256 5.75 8.765 11.31 13.398 17.225z"/><path fill="#EEBB62" d="M360.525 474.831c-1.37-.675-2.852-1.309-3.39-2.406-5.629-11.475-11.047-23.053-16.668-34.53-1.288-2.63-1.046-4.035 2.484-4.38 5.997 12.528 12.108 25.224 18.101 37.975.394.839-.114 2.102-.527 3.341zm-233.849-61.939a32121.173 32121.173 0 0 0-27.263 34.188l-1.803-.356c.208-1.564-.13-3.55.707-4.625 8.584-11.042 17.358-21.935 27.039-34.074.702 2.095 1.125 3.354 1.32 4.867z"/><path fill="#F1BB61" d="M69.715 401.702c-2.189 1.82-4.002 3.57-6.072 4.925-1.043.682-2.553.652-3.851.944.393-1.36.348-3.232 1.247-4 8.454-7.227 17.066-14.27 25.64-21.354 2.034-1.68 4.101-3.317 6.159-4.979 3.099 1.823 2.543 3.346.214 5.232-7.742 6.267-15.386 12.656-23.337 19.232zm388.971-258c3.882-1.964 7.375-3.892 11.02-5.467 1.078-.466 2.584.063 3.894.136-.596 1.156-.892 2.898-1.834 3.38-12.227 6.275-24.547 12.37-36.877 18.528-2.856-2.418-1.923-3.815.756-5.123 7.596-3.708 15.143-7.514 23.041-11.454zm-58.857-79.887c1.782-2.224 3.19-4.327 4.97-6.046.855-.826 2.41-.927 3.65-1.357-.21 1.312.02 2.963-.695 3.882-6.938 8.926-14.028 17.733-21.088 26.564-1.96 2.452-3.963 4.871-5.903 7.253-4.026-1.214-2.717-3.02-1.07-5.066 6.67-8.291 13.28-16.63 20.136-25.23z"/><path fill="#ECBB63" d="M43.689 145.32c9.511 4.733 18.697 9.278 27.884 13.824l.32 1.502c-1.331.4-3.015 1.535-3.941 1.091-12.231-5.866-24.378-11.913-36.47-18.064-1.017-.517-1.492-2.103-2.219-3.193 1.287-.13 2.771-.74 3.824-.305 3.509 1.45 6.863 3.276 10.602 5.145z"/><path fill="#EEBB62" d="M355.57 31.676c1.372-1.098 2.56-1.889 3.747-2.679.033 1.35.538 2.92.027 4.017a1668.616 1668.616 0 0 1-16.59 34.642c-.487.986-2.308 1.314-3.51 1.947l-1.155-1.382c5.765-12.08 11.53-24.158 17.48-36.545zM39.454 199.727c4.598 1.094 8.83 1.957 12.96 3.166 1.008.295 1.685 1.72 2.515 2.626-1.064.395-2.248 1.318-3.173 1.107a1906.242 1906.242 0 0 1-38.21-9.106c-1.013-.253-1.69-1.85-2.524-2.822 1.116-.3 2.33-1.048 3.332-.827 8.255 1.816 16.47 3.811 25.1 5.856zm167.377 273.217c-1.296 5.747-2.42 11.106-3.792 16.4-.261 1.005-1.51 1.755-2.303 2.623-.549-1.033-1.736-2.201-1.552-3.08 2.789-13.269 5.758-26.5 8.684-39.738l1.635-.466c.559 1.302 1.777 2.723 1.568 3.888-1.197 6.687-2.733 13.314-4.24 20.373z"/><path fill="#ECBB63" d="M50.595 293.242c-.583 1.486-1.29 3.502-2.406 3.762-12.295 2.862-24.641 5.508-37.012 8.026-1.208.246-2.67-.755-4.013-1.177 1.043-.856 1.973-2.233 3.148-2.489 13.301-2.901 26.64-5.631 40.283-8.122z"/><path fill="#EEBB62" d="M154.342 460.433c-1.955 4.083-3.606 7.903-5.602 11.534-.537.977-2.119 1.38-3.222 2.048-.166-1.177-.845-2.593-.422-3.494a1992.633 1992.633 0 0 1 16.824-35c.393-.8 1.873-1.063 2.848-1.576.163 1.231.844 2.698.408 3.657-3.433 7.553-7.08 15.01-10.834 22.83z"/><path fill="#ECBB63" d="M472.429 201.589c5.927-1.3 11.431-2.59 16.988-3.58 1.34-.237 2.859.525 4.295.826-1.088.977-2.04 2.558-3.286 2.838-12.787 2.884-25.62 5.558-38.535 8.31-1.699-2.807-.611-3.891 2.1-4.434 6.027-1.205 12.025-2.551 18.438-3.96z"/><path fill="#EEBB62" d="M463.279 299.904c8.143 1.891 15.903 3.606 23.577 5.64 1.314.349 2.265 2.067 3.384 3.152-1.432.283-2.973 1.062-4.277.772-10.822-2.406-21.622-4.925-32.364-7.664-1.311-.334-2.24-2.167-3.346-3.305l1.123-1.392c3.83.909 7.66 1.818 11.903 2.797z"/><path fill="#09A3EA" d="M335.914 281.207c-.388-.109-.777-.218-1.559-.791-4.03-2.396-7.667-4.328-11.476-6.508-.484-.496-.798-.744-1.157-1.326-.939-.761-1.832-1.188-2.727-1.594-.002.021.038.006.048-.354-1.675-1.128-3.36-1.897-5.048-2.646-.001.021.038.007.057-.291-.333-.44-.685-.583-1.044-.71-.008.013.015-.01-.1-.343-1.377-.781-2.637-1.228-3.902-1.658-.006.015.019-.007.046-.36-3.957-2.038-7.943-3.725-12.017-5.745-1.012-.854-1.936-1.374-2.662-2.21 2.696-.174 5.196-.032 8.01.215.746.21 1.176.316 1.818.624 1.102-.346 1.992-.894 3.204-1.447 1.07.376 1.817.755 2.566 1.382.001.246.017.74-.257.772-.125.696-.187 1.745.207 1.961 3.484 1.907 7.049 3.666 10.79 5.68 1.035.719 1.87 1.229 2.9 1.991 1.43 1.078 2.662 1.904 4.023 2.908.335.399.566.587 1.013 1.015.94 1.222 1.692 2.17 3.068 3.91.208-1.89.284-2.58.74-3.4 1.113.167 1.845.463 2.577.758 0 0-.052-.028-.011.276.372.6.704.894 1.035 1.188 0 0-.053-.007-.079.37-.038 2.363-.05 4.348-.063 6.333z"/><path fill="#ECBB63" d="M467.862 360.143a20710.433 20710.433 0 0 1-33.067-16.373c.176-3.057 1.133-4.23 4.244-2.66 10.077 5.086 20.242 9.999 30.297 15.128 1.094.558 1.69 2.09 2.517 3.171-1.214.295-2.427.589-3.991.734z"/><path fill="#2B3443" d="M372.95 296.585c2.588.72 5.196 1.878 7.974 3.574-1.59 1.905-5.636.008-5.437 4.97 3.377-.188 6.604-.369 10.21-.558 1.51-.552 2.645-1.095 3.813-1.648.035-.011.065.055-.087.48 2.39.676 4.93.927 7.894 1.165 1.55-.004 2.676.004 4.156.175 2.518.054 4.682-.055 7.186-.172a57.124 57.124 0 0 0 4.374-1.548c-.031-.01-.006-.072-.257.29 2.206.683 4.665 1.004 7.548 1.322 1.555-.001 2.686 0 4.173.144 3.343.142 6.33.142 10.795.142-1.916-1.678-2.578-2.258-3.278-3.243-.046-1.487-.055-2.57.214-3.764.68-.66 1.081-1.21 1.484-1.759.555-.014 1.11-.028 2.081-.023.407 3.206.399 6.393.363 9.99-.509.462-.99.514-2.137.365-1.866-.15-3.066-.098-4.266-.047-3.588-.035-7.177-.07-11.438-.202-1.204.055-1.736.207-2.268.36-3.105.02-6.21.041-9.882-.097-1.097-.002-1.626.156-2.156.313-.45-.016-.9-.032-1.888-.208-1.392-.07-2.244.018-3.096.107-.76.017-1.52.035-2.9-.114-1.784-.036-2.949.095-4.113.225-4.73-.018-9.46-.037-14.846-.02-.657.037-1.029.053-1.029.053-.768-.053-1.536-.105-2.685-.219-.415-3.245-.45-6.43-.502-10.053z"/><path fill="#F1BB61" d="M418.438 384.527c-1.819-1.485-3.598-2.55-4.827-4.06-.812-1-.835-2.64-1.211-3.994l1.584-.689c9.883 8.033 19.8 16.023 29.585 24.174.816.68.734 2.437 1.07 3.693-1.168-.242-2.622-.121-3.459-.782-7.55-5.96-14.994-12.056-22.742-18.342z"/><path fill="#DA6510" d="M304.07 276.724c14.138 7.109 28.277 14.218 42.794 21.382 1.877 1.345 3.375 2.635 4.873 3.924l-1.112 1.791c-15.894-7.026-30.928-15.843-46.573-24.457-.113-1.347-.047-1.993.018-2.64z"/><path fill="#24ADEC" d="M231.956 193.285c.22-1.84.934-3.587.524-5.01-3.17-10.991-6.562-21.918-9.87-32.87-.21-.696-.293-1.432-.626-3.107 1.47 1.158 2.43 1.57 2.849 2.294 6.266 10.836 10.11 22.395 9.827 35.046-.03 1.316-1.349 2.603-2.362 4.14-.292.235-.368-.25-.342-.493z"/><path fill="#DA6510" d="M195.013 270.461c5.171-1.962 10.342-3.925 16.262-5.81 2.503.21 4.254.341 6.006.472-18.365 6.86-36.73 13.721-55.409 20.253.468-1.333 1.043-2.859 2.06-3.26a687.552 687.552 0 0 1 28.335-10.467c1.341-.345 2.044-.766 2.746-1.188z"/><path fill="#F3FAFE" d="M212.776 403.528c.731-6.294-4.91-5.095-7.626-7.096.139-.625.303-1.52.34-1.514 3.76.528 7.595.836 11.21 1.894 1.062.312 1.95 2.708 2.132 4.241.446 3.77.434 7.596.607 11.417-6.252-.353-6.252-.353-6.663-8.942z"/><path fill="#816202" d="M96.119 239.641c1.371 10.046 1.456 19.698-1.259 29.298-2.963-9.168-1.6-18.617-1.785-28.419.48-1.434.948-2.402 1.655-3.867.575 1.145.95 1.894 1.389 2.988z"/><path fill="#F3FAFE" d="M188.245 400.188c1.343-1.924 2.654-3.466 3.575-5.214 2.071-3.935 4.731-5.419 9.108-2.174-2.444 3.582-4.68 7.647-7.742 10.945-1.173 1.264-4.231.779-7.67 1.267 1.348-2.427 1.934-3.481 2.73-4.824z"/><path fill="#DA6510" d="M261.424 273.517c-.884-.268-1.38-.535-1.876-.802 2.797-2.88 1.525-5.878.906-9.226-.3-1.619 1.917-4.682 3.711-5.481 2.75-1.226 5.738-.282 6.363 3.365-1.49-.046-2.437-.46-3.337-.376-1.18.11-2.6.323-3.38 1.06-.473.447-.24 2.13.206 2.976 1.89 3.582.784 6.244-2.593 8.484zm13.598-11.597c4.675 2.288 9.35 4.576 14.011 7.442-.446.982-.877 1.386-1.309 1.79-4.147-2.069-8.293-4.138-12.639-6.86-.153-1.226-.108-1.8-.063-2.372z"/><path fill="#D2EEFB" d="M298.63 397.276c-1.461.965-3.268 1.809-5.421 2.656-1.502-1.54-2.658-3.084-3.844-4.67 4.114-4.037 6.62-1.536 9.266 2.014z"/><path fill="#94D7F6" d="M335.95 281.18c-.024-1.958-.011-3.943.009-6.326 2.046 2.178 4.086 4.753 6.128 7.69-1.292.637-2.588.914-3.852.775.125-.534.309-.74.294-.756-.194-.204-.417-.38-.632-.562 0 0 .101 0-.009-.294-.724-.408-1.337-.52-1.95-.632 0 0 .05.077.013.105z"/><path fill="#DDE1DA" d="M428.91 286.4c-3.701-.711-7.413-1.716-11.312-2.977 3.405.006 6.997.268 10.964.725.362.783.349 1.371.347 2.253z"/><path fill="#DA6510" d="M292.1 270.578c2.776 1.385 5.553 2.77 8.615 4.734.29 1.32.294 2.063.3 2.806-2.916-1.402-5.83-2.804-8.926-4.926-.117-1.35-.053-1.982.01-2.614z"/><path fill="#AFE1F8" d="M335.179 272.72c-.88.025-1.611-.27-2.73-.411-.387.154-.4.205-.286-.178-.298-.645-.712-.907-1.134-1.152-.007.016.019-.02.125-.338-.638-1.121-1.382-1.924-2.138-2.938a13.43 13.43 0 0 1 0-.968c.037-.784.065-1.232.092-1.68 1.909 1.116 3.817 2.231 5.854 3.977.1 1.09.072 1.547.044 2.005.106.455.213.91.173 1.684z"/><path fill="#DA6510" d="M223.011 260.907c2.893.392 5.785.784 8.808 1.8-.449 1.182-1.026 1.74-1.604 2.296-2.841-3.446-6.2-1.519-9.78-1.19.628-1.156 1.602-2.03 2.576-2.906z"/><path fill="#DA6E21" d="M222.658 260.845c-.62.937-1.595 1.812-2.624 2.982-.755.636-1.456.978-2.455 1.308-2.05-.143-3.801-.274-5.948-.48 3.295-1.34 6.984-2.606 11.027-3.81z"/><path fill="#F4FBFE" d="M157.414 266.959c-1.844 2.268-4.076 4.554-6.646 6.966-.477-1.292-.615-2.708-1.071-4.446 2.23-1.048 4.78-1.775 7.717-2.52z"/><path fill="#DA6510" d="M151.913 289.268c-.5-.899-.822-2.125-.768-2.143 3.465-1.08 6.96-2.063 10.402-2.552-3.128 1.98-6.205 3.455-9.634 4.695zm-10.921 1.74c2.116-.916 4.233-1.832 6.69-2.43.339 1.026.34 1.736.34 2.446-2.044.848-4.088 1.696-6.538 2.151-.435-.984-.464-1.576-.492-2.167z"/><path fill="#ECF8FD" d="M340.993 262.699c-1.474-.616-2.866-1.562-4.258-2.508l.775-1.426c1.8.864 3.599 1.727 5.448 2.83-.594.418-1.238.596-1.965 1.104z"/><path fill="#DA6E21" d="M140.487 291.052c.533.547.562 1.139.624 2.173-.823.841-1.68 1.24-2.91 1.304a40.227 40.227 0 0 1-1.653-1.794c.382-.325.764-.65 1.3-1.086.815-.258 1.474-.405 2.639-.597zm89.708-25.715c.598-.89 1.175-1.448 1.825-2.321.454 1.258.836 2.832 1.024 4.673-.868-.02-1.541-.306-2.486-.64-.309-.492-.346-.935-.363-1.712zm71.02 13.029c-.206-.99-.21-1.733-.218-2.847.904-.005 1.812.362 2.896.967.112.885.046 1.531-.087 2.66-.842.144-1.616-.194-2.59-.78zm-9.307-8.014c.128.858.064 1.49-.046 2.594-1.267-.107-2.488-.688-3.923-1.531.217-.667.648-1.071 1.347-1.83.989-.057 1.71.242 2.622.767zM148.383 291.02c-.362-.706-.362-1.416-.356-2.48 1.614-.997 3.708-2.903 3.054 1.204-1.122.552-1.729.912-2.698 1.276zm126.311-29.416c.283.889.238 1.462.147 2.463-.716.13-1.386-.167-2.214-.8-.376-.917-.594-1.5-.811-2.082.85.034 1.7.068 2.878.419z"/><path fill="#DA6510" d="M136.196 292.845c.779.376 1.205.862 1.72 1.667-.804.354-1.697.388-2.59.423.172-.66.345-1.32.87-2.09z"/><path fill="#ECF8FD" d="M353.195 279.383c-.218-.717-.197-1.324-.155-2.233.146.58.27 1.462.155 2.233z"/><path fill="#24ADEC" d="M363.805 376.696c-.204.907-.657 1.517-1.385 2.23-.48.093-.686.083-1.197.052a6.641 6.641 0 0 1 2.582-2.282z"/><path fill="#ECF8FD" d="M335.34 271.023c-.306-.444-.278-.902-.201-1.7.61.11 1.17.563 1.799 1.296-.377.318-.82.354-1.598.404z"/><path fill="#F4FBFE" d="M138.753 252.05c.223.274.199.5.132 1.06-.155-.145-.267-.627-.132-1.06z"/><path fill="#F1FAFE" d="M327.307 405.856c-.286-.456-.264-.975-.203-1.884.196.347.354 1.084.203 1.884z"/><path fill="#24ADEC" d="M384.552 379.782c-.308-.246-.423-.682-.57-1.457.144-.5.322-.664.759-.575.174.782.09 1.312-.19 2.032z"/><path fill="#43887D" d="M423.989 258.002c.114.292.242.577.217.951-.153.09-.193.057-.194-.21.005-.434.011-.6.018-.767 0 0-.027.02-.041.026z"/><path fill="#F3FAFE" d="M339.002 413.003c-.17.174-.329.362-.488.55.048-.24.096-.48.333-.612.19.108.167.077.155.062z"/><path fill="#AFE1F8" d="M336.017 274.133c-.292.077-.624-.217-1.003-.845.289-.065.626.204 1.003.845z"/><path fill="#1CAAEB" d="M282.047 244.77h10.378l.133-1.176-9.306-1.228.161-1.352c11.054-2.996 21.697-.658 32.775 3.475.979 1.461 1.408 2.585 1.838 3.708-.83-.248-1.661-.496-3.027-.252-.696 1.33-.857 2.169-1.018 3.007-2.548-.11-5.096-.219-7.536.239.108.567.185.553.2.513.014-.04.057-.111.214-.642-2.797-.58-5.751-.63-9.093-.767-1.86.152-3.33.39-5.089.599-.588-.267-.888-.505-1.176-1.123-3.905-.783-7.822-1.186-12.155-1.595-2.978-.354-5.54-.702-8.101-1.05 0 0-.09-.028.296-.01 3.759-.77 7.132-1.558 10.506-2.346m28.836 3.464 1.707-.819a25.261 25.261 0 0 0-3.341-1.475l-3.685.221-.137.826a96.48 96.48 0 0 1 5.456 1.247m-10.105-3.696-5.12-.96c-.05.618-.102 1.235-.153 1.852 1.788 0 3.575 0 5.273-.892z"/><path fill="#24ADEC" d="M249.339 209.205c.563-6.82 1.118-13.163 1.673-19.506 2.437 16.793 2.975 33.512.14 50.303-2.233-4.764-1.813-9.878-1.919-14.88-.108-5.143.054-10.293.106-15.917z"/><path fill="#15A8EB" d="M207.286 256.166c-11.215 4.156-22.42 8.338-33.655 12.44-1.845.675-3.817 1-6.314 1.319 5.854-3.572 12.292-6.975 19.05-10.49.776-.528 1.232-.946 1.726-1.292.039.072.202.063.604.059 4.693-.968 8.957-2.112 13.292-2.804 1.682-.269 3.527.482 5.297.768z"/><path fill="#94D7F6" d="M207.666 256.181c-2.15-.3-3.995-1.052-5.677-.783-4.335.692-8.599 1.836-13.45 2.547-.864-.76-1.17-1.27-1.475-1.779 11.01-2.115 22.02-4.229 33.03-6.348.14-.027.27-.105.406-.16a13.718 13.718 0 0 1-1.211-1.043c-.268-.31-.275-.803.122-.796 2.16.435 3.92.865 5.795 1.434.337-.075.561-.29.78-.722-.004-.216.15-.62.425-.596.756-.208 1.236-.44 1.716-.671l1.69 2.432c-7.461 2.227-14.617 4.364-22.151 6.485z"/><path fill="#15A8EB" d="M294.176 256.987c.923.52 1.847 1.04 3.086 2.123 4.132 2.332 7.948 4.1 11.763 5.869 0 0-.025.022.099.337 1.382.764 2.64 1.213 3.899 1.662 0 0-.023.022-.031.306.341.426.691.569 1.04.711 0 0-.038.014.09.308 1.722 1.092 3.317 1.892 4.911 2.691 0 0-.04.015.043.287.952.727 1.822 1.18 2.692 1.635.313.248.627.496 1.133 1.307.161.982.13 1.403.1 1.824-12.482-6.31-24.98-12.587-37.415-18.988-1.04-.536-4.535-.77-.847-3.025 1.1.502 1.68.705 2.55 1.09 2.49.742 4.688 1.302 6.887 1.863z"/><path fill="#89D3F5" d="M186.708 256.229c.661.446.967.955 1.43 1.721.157.256-.006.265-.374.247-.817.438-1.267.894-1.717 1.35-6.438 3.403-12.876 6.806-19.125 10.42-2.676 1.14-5.542 2.07-8.69 2.992.862-1.515 1.689-3.636 3.208-4.425 8.209-4.263 16.59-8.196 25.268-12.305z"/><path fill="#AFE1F8" d="M306.63 251.744s-.077.014-.086-.024c.218.03.445.098 1.055.488.481.761.579 1.201.677 1.64l.72-.857c6.28 3.773 12.56 7.546 18.653 11.791-.404.71-.57.978-1.029 1.172a118.61 118.61 0 0 0-3.608-.983c-.013.026.033-.01.076-.372-.998-.793-2.038-1.223-3.085-1.626-.007.028.048.015.042-.279-.352-.444-.697-.595-1.046-.718-.002.028.05.009-.094-.27-.733-.44-1.32-.598-1.908-.73.001.028.05.002-.076-.32-1.388-.783-2.65-1.246-3.916-1.682-.004.027.036-.009-.07-.303-1.059-.688-2.012-1.08-2.966-1.473a25.54 25.54 0 0 0-2.85-1.275c-1.45.371-2.29.878-3.13 1.384-.43-.105-.86-.21-1.607-.745-.342-1.292-.366-2.155-.345-3.373.66-.954 1.275-1.553 1.968-1.866.928.331 1.777.376 2.625.421z"/><path fill="#24ADEC" d="M225.093 249.113c-1.761-.43-3.523-.859-6.038-1.49-3.897-.382-7.04-.561-10.183-.74l-12.7-.723c9.505-2.612 19.01-3.247 29.032.285.653.69.793 1.078.932 1.466 0 0-.154.404-.365.734-.21.33-.678.468-.678.468z"/><path fill="#89D3F5" d="M195.798 246.187c4.607.214 8.84.455 13.074.696 3.143.179 6.286.358 9.786.733.356.196.363.69.364.936-10.579-1.157-21.026-.525-31.672 2.006-.27-.688-.197-1.085-.124-1.481 2.733-.955 5.465-1.91 8.572-2.89z"/><path fill="#D2EEFB" d="M270.945 247.134c2.861.34 5.423.688 8.192 1.216-.24.98-.687 1.78-1.135 2.579l4.145 3.25-1.183 1.645-11.205-7.723c.295-.32.59-.64 1.186-.967z"/><path fill="#ECF8FD" d="M217.004 232.994c3.538.625 6.606 1.733 6.91 6.57-4.402-.094-7.169-1.142-6.92-6.157-.003-.398.006-.407.01-.413zm101.321 15.402c-.729-1.322-1.158-2.446-1.785-3.867 3.879 1.34 7.955 2.977 12.031 4.615l-.692 1.83c-3.085-.793-6.17-1.585-9.554-2.578z"/><path fill="#6FC9F2" d="M278.44 250.903c.01-.774.457-1.573 1.113-2.547 4.126.229 8.043.632 11.642 1.382-.938.318-1.56.29-2.549.267-1.751.282-3.134.557-4.516.833-1.75.013-3.502.026-5.69.065zm44.78 25.407c-.188-.684-.158-1.105-.148-1.84 3.616 1.618 7.253 3.55 11.028 5.775-3.461-1.029-7.061-2.351-10.88-3.936z"/><path fill="#D2EEFB" d="M282.039 244.468c-3.366 1.09-6.74 1.878-10.505 2.694 2.802-1.774 5.995-3.576 9.188-5.378.436.794.872 1.588 1.317 2.684z"/><path fill="#94D7F6" d="M289.015 249.999a96.63 96.63 0 0 1 2.168.12c.606.27.906.508 1.51 1.115.319.824.335 1.278-.054 1.743-2.15.661-3.895 1.313-5.64 1.964-.58-.202-1.16-.405-1.879-.891.718-1.027 1.574-1.769 2.822-2.909.62-.646.846-.894 1.073-1.142z"/><path fill="#AFE1F8" d="M332.384 255.695c1.296.79 2.29 1.445 3.282 2.1l-.615 1.086-5.524-2.793.337-.923c.74.131 1.478.262 2.52.53zm-6.611-1.419-4.18-.98.385-1.325c1.249.443 2.498.885 3.886 1.68a.644.644 0 0 1-.091.625z"/><path fill="#ECF8FD" d="m227.962 242.053-2.431-.634.287-.833c.64.295 1.28.59 2.052 1.152.132.268.092.315.092.315zm86.28 9.083c-.1-1.022.061-1.86.489-2.834a5.328 5.328 0 0 1-.49 2.834z"/><path fill="#DA6E21" d="M248.289 273.518c-.524.142-1.185-.005-2.096-.39-.135-.782-.019-1.328.175-2.239.79 1.037 1.288 1.688 1.92 2.629z"/><path fill="#24ADEC" d="M288.646 250.005c.142.242-.085.49-.503.906-1.212.118-2.233.07-3.633-.026 1.002-.323 2.385-.598 4.136-.88z"/><path fill="#F4FBFE" d="M186.894 249.118c.26.355.186.752.059 1.446-.47.368-.885.439-1.616.504.198-.64.712-1.275 1.557-1.95z"/><path fill="#ECF8FD" d="M226.411 247.935c-.414-.412-.554-.8-.837-1.465.578-.103 1.3.07 2.287.519-.214.506-.694.738-1.45.946z"/><path fill="#02A0E9" d="M210.032 229.692c-.77.118-1.71-.063-2.335-.49.932-.1 1.548.044 2.335.49z"/><path fill="#DA6E21" d="M194.706 270.469c-.395.414-1.098.835-2.133 1.176.386-.444 1.106-.806 2.133-1.176z"/><path fill="#ECF8FD" d="M326.964 266.058c.116-.298.281-.566.686-.943.4-.13.611-.118 1.14-.083.29.471.263.919-.013 1.664-.248.298-.73.304-.929.168-.457-.328-.686-.551-.884-.806zm-18.109-13.268c-.099.487-.34.773-.58 1.059-.097-.44-.195-.88-.327-1.571.278-.13.545.058.907.512zm9.795-1.673c.04.363-.043.62-.126.877-.105-.08-.31-.19-.297-.238.07-.257.195-.498.424-.639z"/><path fill="#AFE1F8" d="M326.118 253.87c.47.105.824.346 1.179.586-.387.04-.774.081-1.342-.03-.182-.15.048-.421.163-.556z"/><path fill="#02A0E9" d="M223.043 216.117c.404.258.518.76.633 1.263-.308-.34-.616-.679-.633-1.263z"/><path fill="#09A3EA" d="M336.05 281.425c.5-.238 1.114-.126 1.837.332-.5.237-1.112.127-1.836-.332zm1.632.872c.43-.113.653.062.847.266.015.016-.17.222-.44.476-.327-.058-.474-.253-.407-.742z"/><path fill="#02A0E9" d="M181.078 164.944c.089.16-.028.542-.368.806-.095-.273.033-.429.368-.806z"/><path fill="#ECF8FD" d="M231.488 250.484c.025-.01-.025.01 0 0zm-3.463-8.498c.022-.02.313.225.313.225s-.265.008-.32-.075c-.056-.083-.016-.13.007-.15z"/><path fill="#0A0800" d="M98.856 273.063c3.24 4.619 1.811 8.45-2.927 8.638-3.157.126-6.152-1.306-5.744-4.614.226-1.83 3.086-3.51 5.039-4.85.646-.444 2.168.388 3.632.826zm3.374-10.3c1.469-.353 2.776-1.007 3.677-.646 2.105.843 4.015 2.174 6.004 3.307-1.385 1.339-2.785 3.795-4.154 3.777-2.628-.033-5.239-1.469-7.857-2.322.661-1.319 1.323-2.637 2.33-4.116zm-18.393.092c2.233 1.316 4.053 2.617 5.873 3.919-1.807 1.165-3.64 3.31-5.414 3.26-2.458-.068-6.7-1.452-6.955-2.858-.738-4.07 3.14-4.037 6.496-4.321z"/><path fill="#15A8EB" d="m162.786 408.796 5.905-10.617c2.198 3.01 2.406 5.097-.258 7.122-1.555 1.182-2.918 2.614-4.823 3.913-.578-.153-.701-.285-.824-.418zm.539.608c-.208.023-.586-.165-.752-.48.336.005.459.137.752.48z"/><path fill="#02A0E9" d="M136.754 375.728c.176-.058.568.114.813.481-.297.047-.447-.102-.813-.48z"/><path fill="#5C5F60" d="M429.924 306.708c1.03-.32 2.23-.37 3.732-.234-.985.293-2.273.397-3.732.234zm-37.722.408c.974-.422 2.139-.553 3.543-.487-.957.39-2.155.584-3.543.487zm6.977-.114c.698-.378 1.55-.467 2.605-.37-.682.343-1.567.501-2.605.37zm16.975-.151c.425-.406.957-.558 1.766-.627-.369.35-1.014.615-1.766.627zm-12.007.212c.392-.406.921-.564 1.63-.588-.379.368-.935.602-1.63.588zm-27.967-.036c-.043-.17.33-.186.514-.172-.033.123-.252.233-.513.172z"/><path fill="#15A8EB" d="M341.21 392.44c-2.107-.254-3.83-.441-6.19-.698l9.506-5.866 1.354 1.184c-1.43 1.816-2.86 3.631-4.67 5.38z"/><path fill="#24ADEC" d="M375.942 368.666c-.701.149-1.513-.054-2.65-.445.63-.095 1.584 0 2.65.445zm5.269 6.021c-.742-.074-1.293-.523-1.791-1.335.696.078 1.34.52 1.791 1.335zm-2.859-2.432c-.861-.348-1.365-.999-1.62-1.983.824.337 1.4 1.009 1.62 1.983zm-5.666-4.367c.207.428.051.773-.41 1.141-.19-.392-.07-.808.41-1.14zm-.998.997c.205.427.045.772-.417 1.142-.184-.392-.066-.808.417-1.142zm5.305.869c-.387.177-.835.072-1.156-.42.45-.212.773-.037 1.156.42zm-6.308.126c.206.43.045.77-.416 1.143-.184-.39-.068-.81.416-1.142zm13.465 7.796c-.45.21-.778.04-1.157-.418.392-.18.834-.071 1.156.418zm-14.467-6.802c.207.433.044.772-.417 1.145-.182-.39-.068-.815.417-1.145zm-1.003.994c.209.437.043.772-.416 1.147-.182-.39-.07-.818.416-1.147zm14.47 4.806c-.447.211-.773.039-1.154-.418.389-.179.83-.072 1.153.418zm-15.472-3.812c.21.44.042.772-.417 1.15-.18-.39-.07-.824.417-1.15zm-3.006 2.984c.211.448.037.77-.42 1.153-.176-.386-.07-.832.42-1.153zm17.481-.174c-.447.211-.77.036-1.152-.42.386-.176.831-.07 1.152.42zm-16.479-.821c.21.445.038.77-.419 1.152-.177-.387-.07-.829.419-1.152zm1.002-.993c.21.44.04.77-.418 1.148-.18-.386-.07-.822.418-1.148z"/><path fill="#94C5A9" d="m390.306 270.373-6.466-.486c3.71-3.733 34.924-4.12 43.22-.112-2.988.176-5.18.306-7.822.494-.452.058-.313.095-.313.095a9736.69 9736.69 0 0 0-28.274-.08c-.483.026-.345.089-.345.089z"/><path fill="#1E3043" d="M394.28 249.115c1.074-1.009 2.09-2.069 3.138-2.1 5.598-.168 11.203-.08 17.04-.08 1.065 3.127 1.088 5.26-3.06 5.187-4.625-.083-9.264.144-13.874-.14-1.141-.07-2.194-1.59-3.244-2.867z"/><path fill="#405167" d="M395.566 284.013s-.067-.013.306.193c2.949-1.99 5.524-4.185 8.456-6.399 3.47 2.355 6.586 4.728 9.658 7.508-5.811.659-11.578.954-17.349 1.056-.343.006-.713-1.536-1.07-2.358z"/><path fill="#9CCBAE" d="M409.82 277.606c4.791-.265 9.599-.86 14.367-.632 1.887.09 3.685 2.012 5.425 4.211-5.603-.33-11.206-.661-17.341-1.457-1.138-1.059-1.743-1.652-2.369-2.219-.02.026-.083.097-.083.097zm-12.845 2.301-16.803 1.434c5.374-6.8 12.293-5.527 19.085-4.546-.744 1.328-1.513 2.22-2.282 3.112z"/><path fill="#DDE1DA" d="M408.126 265.281c-2.42-.093-4.84-.185-7.658-.59-.218-1.943-.038-3.572.141-5.202 1.41-.989 2.82-1.977 4.534-2.484.813.623 1.324.764 1.834.905.373.532.747 1.064 1.513 2.106.14 2.095-.112 3.68-.364 5.265z"/><path fill="#4A8A7B" d="M400.366 259.013c.064 2.106-.116 3.735-.35 5.713-2.14.507-4.223.667-6.306.827l-.047-1.252 5.293-4.59c-3.058-.308-4.617-.464-6.548-.928-.386-.48-.399-.651-.412-.823 2.709.193 5.418.385 8.37 1.053z"/><path fill="#C9D2CD" d="M395.2 283.99c.724.845 1.094 2.387 1.437 2.381 5.77-.102 11.538-.397 17.384-1.201.155-.746.285-.893.467-.993 0 0 .253-.1.384-.14.978.904 1.826 1.846 3.307 3.493h-26.382c.737-.977 1.44-1.909 2.226-3.166.325-.348.568-.372 1.177-.374z"/><path fill="#4A8A7B" d="M408.435 265.467c-.057-1.77.195-3.356.322-5.26 1.783-3.303 1.783-3.303 5.848-2.205l-4.213 2.663 4.788 5.346c-2.461-.137-4.449-.247-6.745-.544z"/><path fill="#DDE1DA" d="M414.305 283.984c0 .293-.13.44-.242.78-3.15-2.229-6.264-4.602-9.72-7.297-.34-1.003-.338-1.683-.336-2.364 1.653.955 3.306 1.91 5.386 2.684.426-.18.489-.252.163.033.53 1.439 1.388 2.592 2.245 3.746.773.741 1.547 1.483 2.504 2.418zm4.569-13.144c.05-.476-.088-.513-.118-.49.742.585 1.513 1.145 2.765 2.024.473.75.467 1.182.46 1.614h-14.48l-.074-1.354c3.799-.439 7.598-.877 11.447-1.793zm-28.642-.032c.074-.435-.064-.498-.094-.473 1.427.6 2.846 1.5 4.351 1.68 2.347.28 4.752.074 7.133.074l.022 1.345H386.49c1.67-.997 2.668-1.594 3.74-2.626zm1.225 12.781c-1.849 1.239-3.908 2.267-6.049 3.082-2.645 1.006-4.192.327-3.579-3.26 3.22-.313 6.3-.22 9.628.178zm17.161-40.622a16.92 16.92 0 0 1 2.188.538l-.058.891H398.72l-.064-1.439c3.17 0 6.34 0 9.962.01z"/><path fill="#C9D2CD" d="M403.728 275.13c.277.654.276 1.334.26 2.355-2.592 2.536-5.167 4.73-8.118 6.755-.02-.739.336-1.307 1.207-2.26 1.815-1.857 3.116-3.33 4.416-4.801.652-.674 1.304-1.347 2.235-2.049z"/><path fill="#4A8A7B" d="M401.068 277.117c-.875 1.534-2.176 3.006-3.777 4.593-.302-.31-.303-.736-.31-1.482.763-1.213 1.532-2.105 2.555-3.144.538-.108.822-.069 1.532.033z"/><path fill="#02A0E9" d="M423.61 257.897c.413.245.407.412.383.828-2.174.446-4.331.643-6.488.84l-.123-1.32c1.936-.142 3.872-.284 6.228-.348zm-32.035-.002c.434.237.447.408.51.833-1.86.126-3.77-.001-5.919-.378-.237-.248-.165-.345-.126-.393 1.73-.074 3.422-.1 5.535-.062z"/><path fill="#4A8A7B" d="M411.867 281.127c-.923-.715-1.78-1.868-2.29-3.333.951.282 1.556.875 2.32 1.742.12.567.078.86-.03 1.591zm-23.16-19.482c.294.133.453.392.612.65-.249-.174-.498-.35-.612-.65zm29.38-6.716c-.033.28-.177.449-.322.618l-.294-.293c.168-.145.336-.29.616-.325zm-26.86-.141c.148.229.15.472.107.708-.004.028-.252.012-.387.015.04-.236.081-.473.28-.723zm30.983 19.084c-.222-.316-.216-.747-.288-1.496.121.249.319.814.288 1.496zm-15.389-16.154c-.354.051-.865-.09-1.444-.49.383-.072.836.113 1.444.49z"/><path fill="#02A0E9" d="M395.99 244.002c.076.072.17.13.262.189-.078.01-.157.02-.224-.101.012-.133-.02-.101-.037-.088z"/><path fill="#4A8A7B" d="M390.51 264.514c-.025.01.023-.01 0 0z"/><path fill="#02A0E9" d="M366.44 129.473c-.302.467-.799.725-1.296.982.066-.437.131-.875.446-1.454.385-.007.52.128.85.472zm-9.654-8.612c-.253.435-.685.56-1.117.687.313-.331.626-.663 1.117-.687z"/><path fill="#09A3EA" d="M296.195 87.957c-.764-1.102-1.632-2.224-1.441-3.121.683-3.212 1.724-6.348 2.913-10.502 2.527 1.163 6.546 2.054 6.634 3.236.24 3.247-.797 6.783-2.163 9.83-.389.87-3.629.462-5.943.557zm-28.193 12.197c-1.035-1.712-2.363-3.407-2.23-4.979.583-6.934 1.615-13.829 2.426-20.745.381-3.245 1.466-5.121 5.38-4.641 4.16.51 4.13 2.817 3.69 5.964a604.593 604.593 0 0 0-2.414 19.747c-.435 4.099-2.064 6.23-6.852 4.654zM231.98 411.107c.715-1.47 1.411-3.26 2.165-3.285 3.598-.118 7.211.244 11.447.469-1.023 7.258-1.706 14.145-3.235 20.839-.24 1.05-4.311 1.638-6.61 1.636-1.164 0-3.249-1.725-3.333-2.795-.428-5.435-.337-10.911-.434-16.864zm-45.043-309.073c.448 1.117.783 1.873 1.097 2.637 2.44 5.925 2.054 6.625-4.841 8.295L171.63 85.77c5.316-4.177 6.733-3.888 9.168 1.763 2.028 4.705 4.012 9.43 6.138 14.502z"/><path fill="#02A0E9" d="M176.162 115.695c-.551-.105-.978-.567-1.303-1.389.543.105.986.568 1.303 1.389z"/><path fill="#09A3EA" d="M384.74 138.718c1.42-1.184 2.623-2.078 3.707-3.098 2.346-2.21 4.222-1.842 6.218.615 1.9 2.34 2.27 4.24-.275 6.333a1416.753 1416.753 0 0 0-17.151 14.37c-2.352 1.997-4.162 1.907-6.276-.567-2.23-2.609-2.158-4.464.52-6.597 4.406-3.51 8.666-7.205 13.257-11.056z"/><path fill="#15A8EB" d="M314.754 398.751c-4.552 1.68-8.714 3.294-12.948 4.686-.79.26-1.871-.364-2.818-.58.539-.835.891-2.122 1.646-2.432a211.04 211.04 0 0 1 13.467-5.004c.763-.254 1.862.5 2.805.787-.595.8-1.19 1.6-2.152 2.543z"/><path fill="#F7FBFE" d="M211.01 232.654c-.096 0 .003-.302.003-.302s.091.303-.004.302z"/><path fill="#9CCBAE" d="M418.943 289.995c5.899.774 11.308 1.55 16.717 2.324l-.18 1.947h-62.508c8.74-6.3 18.093-3.873 27.028-4.225 6.142-.242 12.302-.046 18.943-.046z"/><path fill="#C9D2CD" d="M433.293 296.27c.016.435-.386.984-1.503 1.57-2.995.034-5.274.034-7.658.034 0 2.026 0 3.503-.022 5.427-.004.742.014 1.04.031 1.336-1.13-.001-2.262-.003-3.854-.465-.48-.77-.5-1.08-.483-1.774-.572-1.792-1.179-3.2-1.786-4.608 4.952-.468 9.904-.937 15.275-1.52z"/><path fill="#DDE1DA" d="M413.065 303.034c-1.355.51-2.71 1.019-4.422 1.213-1.036-1.905-1.715-3.494-2.395-5.083 1.407-3.008 3.847-2.534 6.326-1.188.155 2.148.323 3.603.49 5.058zm-11.945 1.546c-1.127-.008-2.254-.016-3.817-.453-.464-.722-.491-1.015-.471-1.696-.562-1.813-1.172-3.238-1.781-4.664 2.6-.206 5.201-.412 8.216-.283-.44 2.589-1.294 4.843-2.148 7.096z"/><path fill="#121D1D" d="M394.64 297.837c1.02 1.356 1.63 2.78 1.748 4.669-2.599.466-4.706.469-6.813.472 0 0-.03-.066-.072-.426.15-1.789.342-3.216.534-4.644 1.397 0 2.795 0 4.603-.07z"/><path fill="#DDE1DA" d="M389.803 297.595c.042 1.74-.15 3.168-.335 4.967-1.126.914-2.26 1.457-3.783 1.7-.744-.96-1.1-1.622-1.497-2.639a37.74 37.74 0 0 0-1.011-2.837c2.13-.501 4.261-1.003 6.626-1.19z"/><path fill="#121D1D" d="M413.033 303.023c-.136-1.444-.304-2.9-.229-4.74 1.628-.38 3.013-.374 4.806-.43 1.015 1.345 1.622 2.753 1.777 4.63-2.421.469-4.39.469-6.36.468 0 0-.025.062.006.072z"/><path fill="#808384" d="M384.23 301.98c.356.66.71 1.321 1.078 2.291-3.217.49-6.444.67-9.82.858-.2-4.962 3.846-3.065 5.711-4.72.103-.287.29-.316.488.016.98.74 1.762 1.147 2.543 1.554zm17.243 2.763c.5-2.416 1.353-4.67 2.206-7.287.682.187 1.365.735 2.309 1.496.94 1.801 1.62 3.39 2.315 5.304-2.148.432-4.312.54-6.83.487z"/><path fill="#1E3043" d="M384.188 301.623c-.74-.051-1.52-.458-2.409-1.218.205-.662.518-.972 1.114-1.45.607.658.93 1.485 1.295 2.668z"/><path fill="#1CAAEB" d="M369.57 377.65c1.123-.502 3.116-1.149 3.5-.623 1.334 1.83 5.547 2.632 2.06 7.821-2.04-2.557-3.733-4.68-5.56-7.197z"/><path fill="#89D3F5" d="M287.29 255.124c1.454-.834 3.2-1.486 5.768-2.15a355.33 355.33 0 0 1 5.362-.034c.757.043 1.19.07 1.789.13.166.032.5.083.814.205.53.171.75.22.968.269.025.863.05 1.726.076 2.913-2.498.182-4.998.04-7.694.214-2.396-.245-4.595-.805-7.084-1.547zm33.22 10.523c-3.54-1.803-7.105-3.562-10.589-5.469-.394-.216-.332-1.265.03-1.725 1.37.305 2.23.409 3.09.512 0 0-.04.036.056.353 1.38.764 2.665 1.212 3.95 1.66 0 0-.049.026.061.308.72.42 1.33.56 1.941.699 0 0-.052.019-.026.277.36.415.694.57 1.028.726 0 0-.055.013.001.259.424.662.792 1.078.973 1.712a12.35 12.35 0 0 0-.514.688zm-11.458-1.02c-3.842-1.417-7.658-3.185-11.7-5.183 3.757 1.457 7.743 3.144 11.7 5.183zM328.046 267s.483-.006.72.033c.239.039.238.46-.053.772-.372.888-.454 1.463-.712 2.214-.178.176-.497.56-.497.56-1.231-.826-2.463-1.652-3.699-2.92.116-.578.235-.714.739-.736 1.424.101 2.463.089 3.502.077zm-9.003 3.634c-1.604-.44-3.199-1.239-4.92-2.352 1.56.455 3.245 1.224 4.92 2.352zM304.2 257.51c.629-.71 1.47-1.216 2.596-1.583-.603.689-1.493 1.237-2.595 1.583zm27.848 15.004.02-.077a650.9 650.9 0 0 1-.353 3.245c-1.376-1.74-2.128-2.688-2.867-4.1.138-.598.265-.733.69-.777a12.78 12.78 0 0 0 1.51.154s-.026.036.03.341c.36.608.665.911.97 1.214zm-19.141-5.87c-1.143-.115-2.401-.564-3.778-1.343 1.142.115 2.402.562 3.778 1.343z"/><path fill="#89D3F5" d="M323.608 267.407c-1.027-.32-1.862-.83-2.897-1.55-.09-.367.018-.524.617-.827.899-.121 1.308-.095 1.717-.068 0 0-.046.035-.001.29.402.688.759 1.123 1.116 1.557-.12.136-.239.272-.552.598zm-1.886 5.175c-.824-.12-1.694-.574-2.645-1.322.813.134 1.706.56 2.645 1.322z"/><path fill="#1CAAEB" d="M312.935 258.67c-.754.192-1.614.088-2.71-.25-.237-.235-.253-.729-.254-.975.952.146 1.905.538 2.964 1.226z"/><path fill="#89D3F5" d="M314.052 267.697c-.369.156-.719.013-1.052-.427.367-.156.719-.014 1.052.427zm14.606 3.613c-.458.034-.69-.154-1.024-.553-.13-.178.19-.562.576-.637.65.103.863.326 1.03.595-.127.134-.254.269-.582.594z"/><path fill="#0A0800" d="M424.132 302.855v-4.98c2.384 0 4.663 0 7.38.074.447 1.158.456 2.242.276 4.074-2.678.777-5.167.804-7.656.832z"/><path fill="#808384" d="M424.11 303.3c2.51-.473 5-.5 7.715-.873.889.236 1.55.816 3.467 2.494-4.464 0-7.452 0-10.795-.142-.373-.439-.391-.736-.387-1.478zm-11.334.014c2.22-.362 4.19-.362 6.575-.447.436.225.456.534.512 1.307a20.25 20.25 0 0 1-7.087-.86zm-23.353.089c2.26-.428 4.366-.431 6.918-.51.47.219.498.512.54 1.246-2.527.19-5.068-.06-7.458-.736z"/><path fill="#1CAAEB" d="M329.537 270.805c-.464-.359-.678-.582-1.15-.86-.128-.677-.046-1.252.338-1.93 1.047.702 1.79 1.505 2.429 2.626-.51.297-.915.275-1.617.164zm2.626 1.326c-.42.08-.725-.223-1.078-.847.366-.06.78.202 1.078.847z"/><path fill="#F7FBFE" d="M302.037 253.19c-.265.305-.483.256-1.013-.085-.534-.217-.758-.143-.981-.068-.433-.027-.866-.054-1.663-.413-.318-.969-.272-1.606-.226-2.243 2.954.05 5.908.1 8.255.518-1.232.29-1.857.213-2.483.137-.614.6-1.228 1.2-1.89 2.153z"/><path fill="#AFE1F8" d="M297.766 250.295c.342.723.296 1.36.29 2.314-1.366.327-2.77.339-4.593.354-.435-.451-.451-.905-.482-1.7 1.455-.578 2.926-.816 4.785-.968z"/><path fill="#F7FBFE" d="M300.823 244.984c-1.743.446-3.53.446-5.318.446l.154-1.852c1.706.32 3.413.64 5.164 1.406z"/><path fill="#ECF8FD" d="m310.005 247.924-4.578-.937.137-.826c1.228-.074 2.456-.147 4.064.158.38.788.378 1.197.377 1.605zm-6 3.399c.547-.21 1.172-.135 2.247.106.45.164.407.236.393.275-.863-.005-1.712-.05-2.64-.381z"/><path fill="#F7FBFE" d="M310.444 248.079c-.438-.563-.437-.972-.437-1.687.86.137 1.722.58 2.583 1.023-.57.273-1.138.546-2.146.664z"/><path fill="#94D7F6" d="M186.367 259.435c.13-.344.58-.8 1.358-1.31-.126.364-.582.782-1.358 1.31z"/><path fill="#ECF8FD" d="M225.206 249.253c-.113-.14.354-.278.57-.392-.009.102-.233.317-.57.392z"/><path fill="#1CAAEB" d="M324.544 266.923c-.741-.548-1.098-.983-1.486-1.697 1.051.02 2.135.322 3.562.728.542.359.77.582 1.228.91-.841.148-1.88.16-3.304.059zm-7.624-6.267c-1.158-.126-2.442-.574-3.819-1.365 1.17.12 2.432.582 3.82 1.365zm6.168 3.943c-.452.336-.861.31-1.574.213-.67-.487-1.038-.903-1.455-1.592.99.156 2.031.586 3.029 1.379zm-4.183-2.894c-.466.14-1.077.002-1.798-.447.477-.15 1.065.009 1.798.447zm1.14.989c-.328.138-.662-.017-1.02-.46.323-.135.668.016 1.02.46z"/><path fill="#AFE1F8" d="M300.209 253.07c.057-.108.28-.182.502-.087-.001.17-.336.12-.502.087z"/></svg>