<?xml version="1.0" standalone="no"?>
<!DOCTYPE svg PUBLIC "-//W3C//DTD SVG 20010904//EN"
 "http://www.w3.org/TR/2001/REC-SVG-20010904/DTD/svg10.dtd">
<svg version="1.0" xmlns="http://www.w3.org/2000/svg"
 width="900.000000pt" height="900.000000pt" viewBox="0 0 900.000000 900.000000"
 preserveAspectRatio="xMidYMid meet">

<g transform="translate(0.000000,900.000000) scale(0.100000,-0.100000)"
fill="#000000" stroke="none">
<path d="M4070 6924 c-283 -32 -450 -72 -650 -156 -457 -192 -834 -549 -1051
-994 -417 -856 -196 -1881 536 -2492 280 -234 654 -400 1020 -452 125 -18 374
-23 500 -11 377 37 779 198 1066 427 37 29 71 58 74 64 18 29 -36 83 1043
-1045 227 -236 419 -434 427 -440 11 -8 33 8 95 70 44 44 80 83 80 88 0 5
-161 176 -357 380 -197 204 -466 484 -597 622 -132 137 -298 309 -369 382
l-130 131 42 49 c221 257 387 612 453 973 29 155 31 524 5 670 -84 460 -272
825 -587 1140 -305 305 -715 513 -1135 576 -98 14 -396 26 -465 18z m286 -244
c391 -30 793 -200 1071 -453 244 -221 407 -467 512 -770 130 -376 131 -773 4
-1162 -176 -538 -601 -965 -1143 -1148 -384 -129 -825 -125 -1195 12 -457 169
-810 487 -1019 916 -340 699 -199 1535 352 2081 333 331 772 516 1262 532 19
1 89 -3 156 -8z"/>
</g>
</svg>
