<?xml version="1.0" standalone="no"?>
<!DOCTYPE svg PUBLIC "-//W3C//DTD SVG 20010904//EN"
 "http://www.w3.org/TR/2001/REC-SVG-20010904/DTD/svg10.dtd">
<svg version="1.0" xmlns="http://www.w3.org/2000/svg"
 width="900.000000pt" height="900.000000pt" viewBox="0 0 900.000000 900.000000"
 preserveAspectRatio="xMidYMid meet">

<g transform="translate(0.000000,900.000000) scale(0.100000,-0.100000)"
fill="#000000" stroke="none">
<path d="M1260 6545 l0 -125 495 0 c272 0 495 -3 495 -7 1 -5 160 -800 354
-1768 282 -1409 356 -1759 367 -1755 8 3 853 6 1879 7 l1865 3 241 1447 c133
797 241 1449 240 1449 0 1 -54 10 -119 21 l-117 20 -5 -21 c-3 -12 -102 -604
-220 -1316 -118 -712 -218 -1307 -221 -1322 l-6 -28 -1679 0 c-923 0 -1679 1
-1679 3 0 1 -151 756 -336 1677 -184 921 -339 1711 -342 1755 l-7 80 -602 3
-603 2 0 -125z"/>
<path d="M3778 2641 c-32 -11 -80 -33 -108 -51 -64 -41 -151 -135 -180 -194
-69 -143 -66 -313 8 -450 36 -67 135 -164 203 -199 55 -28 170 -57 224 -57 54
0 162 28 221 57 69 34 168 130 206 200 73 133 75 309 6 452 -28 59 -124 159
-189 198 -105 63 -273 82 -391 44z m247 -245 c93 -44 137 -116 137 -221 1
-134 -102 -235 -237 -235 -95 0 -173 48 -217 135 -26 50 -29 156 -5 201 65
126 202 177 322 120z"/>
<path d="M5730 2644 c-158 -42 -304 -198 -339 -362 -24 -114 -7 -236 47 -336
37 -69 136 -165 206 -199 59 -29 167 -57 221 -57 54 0 162 28 221 57 68 33
161 123 203 196 74 130 80 304 14 445 -32 67 -124 167 -194 209 -101 61 -256
80 -379 47z m235 -248 c93 -44 138 -117 138 -221 -1 -134 -103 -235 -238 -235
-135 0 -237 101 -238 235 0 68 21 126 61 169 40 42 118 76 177 76 32 0 68 -9
100 -24z"/>
</g>
</svg>
